<svg width="598" height="362" viewBox="0 0 598 362" fill="none" xmlns="http://www.w3.org/2000/svg">
<path d="M241.14 120.71L241.14 241.28L180.86 180.72L241.14 120.71Z" fill="#82B834"/>
<path d="M361.71 241.28L361.71 361.85L482.28 361.85L482.28 241.28L361.71 241.28Z" fill="#0C4874"/>
<path d="M120.57 0.139969L120.57 120.71L241.14 120.71L241.14 0.139964L120.57 0.139969Z" fill="#0C4874"/>
<path d="M211 120.71L211 241.28L150.71 180.72L211 120.71Z" fill="#056DAC"/>
<path d="M180.86 120.71L180.86 241.28L120.57 180.72L180.86 120.71Z" fill="#82B834"/>
<path d="M301.425 120.71C268.131 120.71 241.14 147.701 241.14 180.995C241.14 214.29 268.131 241.28 301.425 241.28C334.719 241.28 361.71 214.29 361.71 180.995C361.71 147.701 334.719 120.71 301.425 120.71Z" fill="#EE9137"/>
<path d="M241.14 0.140198C274.41 0.140195 301.43 27.1502 301.43 60.4302C268.16 60.4302 241.14 33.4202 241.14 0.140198Z" fill="#82B834"/>
<path d="M286.36 0.140198C319.63 0.140195 346.65 27.1502 346.65 60.4302C313.38 60.4302 286.36 33.4202 286.36 0.140198Z" fill="#82B834"/>
<path d="M331.57 0.140198C364.84 0.140195 391.86 27.1502 391.86 60.4302C358.59 60.4302 331.57 33.4202 331.57 0.140198Z" fill="#82B834"/>
<path d="M301.43 60.4199C301.43 93.6899 274.42 120.71 241.14 120.71C241.14 87.4399 268.15 60.4199 301.43 60.4199Z" fill="#82B834"/>
<path d="M346.64 60.4199C346.64 93.6899 319.63 120.71 286.35 120.71C286.35 87.4399 313.36 60.4199 346.64 60.4199Z" fill="#82B834"/>
<path d="M391.85 60.4199C391.85 93.6899 364.84 120.71 331.56 120.71C331.56 87.4399 358.57 60.4199 391.85 60.4199Z" fill="#82B834"/>
<path d="M-5.27028e-06 116.24L120.57 116.24L120.57 236.81C54.03 236.81 -2.36129e-06 182.79 -5.27028e-06 116.24Z" fill="#EE9137"/>
<path d="M241.134 301.555L301.422 361.843L361.71 301.555L301.422 241.267L241.134 301.555Z" fill="#82B834"/>
<path d="M391.85 60.4202C391.85 27.1502 418.86 0.130187 452.14 0.130185L482.28 0.130184L482.28 120.7L452.14 120.7C418.87 120.7 391.85 93.6902 391.85 60.4102L391.85 60.4202Z" fill="#EE9137"/>
<path d="M120.57 241.28C120.57 274.57 147.56 301.57 180.86 301.57C147.56 301.56 120.57 328.56 120.57 361.85L180.86 361.85C214.15 361.85 241.14 334.86 241.14 301.56C241.14 268.27 214.15 241.27 180.85 241.27L120.56 241.27L120.57 241.28Z" fill="#EE9137"/>
<path d="M373.02 120.7L373.02 301.56L380.56 301.56L380.56 120.7L373.02 120.7Z" fill="#82B834"/>
<path d="M391.85 120.7L391.85 301.56L399.39 301.56L399.39 120.7L391.85 120.7Z" fill="#82B834"/>
<path d="M410.69 120.7L410.69 301.56L418.23 301.56L418.23 120.7L410.69 120.7Z" fill="#82B834"/>
<path d="M429.53 120.7L429.53 301.56L437.07 301.56L437.07 120.7L429.53 120.7Z" fill="#82B834"/>
<path d="M448.37 120.7L448.37 301.56L455.91 301.56L455.91 120.7L448.37 120.7Z" fill="#82B834"/>
<path d="M467.21 120.7L467.21 301.56L474.75 301.56L474.75 120.7L467.21 120.7Z" fill="#82B834"/>
<path d="M274.314 217.042C274.314 217.042 274.244 217.042 274.204 217.042C273.784 217.012 273.404 216.812 273.134 216.482L256.224 195.262C255.964 194.932 255.854 194.512 255.914 194.092C255.974 193.682 256.214 193.312 256.564 193.072L265.644 186.992C267.074 186.032 269.034 186.342 270.104 187.682L283.604 204.622C284.694 205.992 284.554 207.922 283.284 209.122L275.334 216.622C275.054 216.882 274.684 217.032 274.304 217.032L274.314 217.042ZM259.594 194.662L274.474 213.332L281.234 206.952C281.364 206.832 281.374 206.642 281.264 206.502L267.764 189.562C267.654 189.422 267.464 189.392 267.324 189.492L259.594 194.662Z" fill="white"/>
<path d="M309.394 193.131C309.164 193.131 308.934 193.131 308.704 193.121L298.014 192.791C297.184 192.761 296.534 192.071 296.564 191.251C296.584 190.421 297.284 189.731 298.104 189.801L308.794 190.131C309.964 190.171 311.144 190.101 312.304 189.921C314.514 189.591 316.524 188.591 318.114 187.021C318.954 186.191 318.974 184.831 318.164 183.971C317.334 183.101 316.174 182.601 314.984 182.601L309.904 182.561C307.424 182.541 304.994 182.081 302.684 181.171L300.124 180.171C296.684 178.821 292.924 178.381 289.264 178.901L289.064 178.931C285.524 179.431 282.214 181.131 279.744 183.721L277.534 186.031C275.614 188.041 273.394 189.691 270.914 190.941L270.524 191.131C269.784 191.501 268.884 191.211 268.514 190.471C268.144 189.731 268.434 188.831 269.174 188.461L269.564 188.261C271.734 187.171 273.684 185.721 275.364 183.961L277.574 181.651C280.504 178.581 284.444 176.561 288.644 175.961L288.844 175.931C293.014 175.341 297.294 175.841 301.214 177.381L303.774 178.381C305.744 179.151 307.804 179.551 309.914 179.561L314.994 179.601C316.994 179.611 318.934 180.451 320.324 181.901C322.274 183.931 322.224 187.191 320.214 189.161C318.174 191.171 315.584 192.461 312.744 192.891C311.634 193.061 310.504 193.141 309.384 193.141L309.394 193.131Z" fill="white"/>
<path d="M281.344 205.691C280.824 205.691 280.324 205.421 280.044 204.951C279.624 204.231 279.864 203.321 280.584 202.901C283.904 200.961 287.684 200.031 291.534 200.191L311.574 201.041C317.254 201.281 322.864 199.181 326.994 195.291L343.744 179.461C343.994 179.221 343.994 178.951 343.974 178.801C343.954 178.651 343.874 178.391 343.564 178.241C341.464 177.201 338.934 177.341 336.954 178.611L317.834 191.041C317.144 191.491 316.214 191.291 315.754 190.601C315.304 189.911 315.504 188.981 316.194 188.521L335.314 176.091C338.174 174.251 341.834 174.041 344.884 175.551C345.984 176.091 346.754 177.151 346.934 178.361C347.114 179.571 346.694 180.801 345.804 181.651L329.054 197.481C324.344 201.931 317.914 204.321 311.444 204.051L291.404 203.201C288.134 203.061 284.924 203.861 282.104 205.511C281.864 205.651 281.604 205.721 281.344 205.721V205.691Z" fill="white"/>
<path d="M329.784 182.971C329.254 182.971 328.734 182.681 328.464 182.181C326.824 179.141 323.714 178.411 320.424 177.641C319.234 177.361 318.014 177.081 316.904 176.671C315.104 176.021 313.864 176.341 312.144 176.781C310.704 177.151 309.064 177.561 306.834 177.521C302.224 177.411 299.414 179.261 299.384 179.281C298.704 179.741 297.764 179.571 297.304 178.891C296.834 178.211 297.004 177.281 297.684 176.811C297.824 176.711 301.244 174.411 306.894 174.521C308.724 174.571 310.074 174.211 311.394 173.871C313.294 173.381 315.254 172.871 317.934 173.841C318.874 174.181 319.964 174.441 321.114 174.711C324.554 175.511 328.844 176.511 331.124 180.751C331.514 181.481 331.244 182.391 330.514 182.781C330.284 182.901 330.044 182.961 329.804 182.961L329.784 182.971Z" fill="white"/>
<path d="M328.164 180.851C327.704 180.851 327.254 180.641 326.954 180.241C326.464 179.581 326.594 178.641 327.264 178.141C331.634 174.891 333.144 174.201 333.904 173.961C337.384 172.851 340.484 174.661 340.614 174.741C341.324 175.161 341.564 176.081 341.134 176.801C340.704 177.511 339.784 177.741 339.074 177.321C339.064 177.321 336.984 176.141 334.804 176.831C334.414 176.951 333.094 177.561 329.054 180.561C328.784 180.761 328.474 180.861 328.164 180.861V180.851Z" fill="white"/>
<path d="M312.534 176.631C311.824 176.631 311.234 176.141 311.074 175.481C311.074 175.461 311.064 175.441 311.064 175.431C310.374 172.591 309.134 169.401 307.484 166.221C307.184 165.631 306.874 165.061 306.564 164.501C303.944 159.841 300.824 155.921 298.434 154.261C297.754 153.791 297.584 152.851 298.054 152.171C298.524 151.491 299.454 151.321 300.144 151.791C302.924 153.711 306.304 157.911 309.184 163.021C309.524 163.621 309.854 164.231 310.164 164.851C311.914 168.221 313.234 171.631 313.984 174.701C314.024 174.841 314.044 175.001 314.044 175.121C314.044 175.951 313.374 176.621 312.544 176.621L312.534 176.631Z" fill="white"/>
<path d="M304.124 168.401C303.604 168.401 303.084 168.361 302.564 168.291C298.534 167.721 295.314 164.991 293.944 160.991C291.484 153.831 289.754 152.351 286.884 149.891C286.504 149.561 286.304 149.061 286.374 148.551C286.444 148.051 286.754 147.611 287.214 147.391C295.624 143.391 304.814 144.391 309.574 149.821C312.954 153.681 314.574 160.651 311.584 164.891C310.024 167.101 307.204 168.401 304.134 168.401H304.124ZM290.624 149.211C292.964 151.441 294.674 153.911 296.774 160.011C297.784 162.961 300.054 164.891 302.984 165.311C305.484 165.671 307.964 164.801 309.124 163.151C311.024 160.451 310.164 155.041 307.314 151.791C303.814 147.801 297.174 146.841 290.624 149.211Z" fill="white"/>
<path d="M312.504 176.642C311.674 176.642 311.004 175.972 311.004 175.142C311.004 175.012 311.024 174.852 311.064 174.722C311.534 172.792 312.384 170.632 313.494 168.482C313.684 168.102 313.904 167.702 314.124 167.312C315.984 164.012 318.194 161.282 320.014 160.022C320.694 159.552 321.634 159.722 322.104 160.402C322.574 161.082 322.404 162.022 321.724 162.492C320.274 163.492 318.364 165.902 316.744 168.782C316.544 169.122 316.354 169.482 316.174 169.832C315.154 171.802 314.404 173.732 313.984 175.432C313.984 175.442 313.984 175.452 313.984 175.462C313.834 176.132 313.234 176.632 312.524 176.632L312.504 176.642Z" fill="white"/>
<path d="M317.794 171.532C315.674 171.532 313.714 170.622 312.624 169.072C310.584 166.172 311.654 161.452 313.934 158.852C317.114 155.232 323.204 154.542 328.744 157.182C329.204 157.402 329.524 157.832 329.584 158.342C329.654 158.842 329.454 159.352 329.074 159.682C327.264 161.232 326.274 162.082 324.764 166.472C323.824 169.202 321.624 171.062 318.864 171.462C318.504 171.512 318.154 171.542 317.794 171.542V171.532ZM321.914 158.572C319.574 158.572 317.494 159.342 316.184 160.832C314.554 162.682 314.014 165.852 315.074 167.352C315.684 168.222 317.074 168.682 318.434 168.492C319.214 168.382 321.114 167.872 321.924 165.502C323.094 162.082 324.094 160.412 325.324 159.082C324.164 158.742 323.004 158.572 321.914 158.572Z" fill="white"/>
<path d="M325.864 179.281C325.434 179.281 325.014 179.101 324.714 178.751C324.184 178.121 324.254 177.181 324.884 176.641C324.934 176.601 326.194 175.531 328.274 174.641C330.654 173.631 332.444 175.021 333.054 175.901C333.524 176.581 333.364 177.511 332.674 177.991C332.004 178.461 331.084 178.301 330.604 177.641C330.404 177.391 330.044 177.141 329.444 177.401C327.814 178.091 326.834 178.911 326.824 178.921C326.544 179.161 326.194 179.271 325.854 179.271L325.864 179.281Z" fill="white"/>
<path d="M603.86 241.28L603.86 361.85L483.29 361.85C483.29 295.31 537.32 241.28 603.86 241.28Z" fill="#056DAC"/>
<path d="M542.575 120.71C575.869 120.71 602.86 93.7191 602.86 60.4246C602.86 27.1301 575.869 0.13965 542.575 0.139651C509.28 0.139653 482.29 27.1302 482.29 60.4246C482.29 93.7191 509.28 120.71 542.575 120.71Z" fill="#056DAC"/>
<path d="M603.86 120.71L603.86 241.28L573.72 241.28C540.45 241.28 513.43 214.27 513.43 180.99C513.43 147.72 540.44 120.7 573.72 120.7L603.86 120.7L603.86 120.71Z" fill="#82B834"/>
<path d="M522.891 53.4911L543.531 49.5211L537.141 45.8311L542.511 36.5311L548.781 47.3811L563.521 38.8711L558.481 30.1511C557.491 28.4311 555.641 27.3711 553.661 27.3711L531.361 27.3711C529.381 27.3711 527.531 28.4411 526.541 30.1611L522.401 37.3311L516.011 33.6411L522.891 53.5111L522.891 53.4911ZM535.071 48.0911L524.881 50.0511L521.481 40.2411L523.501 41.4111L529.141 31.6411C529.601 30.8511 530.451 30.3611 531.361 30.3611L553.661 30.3611C554.571 30.3611 555.431 30.8511 555.881 31.6511L559.421 37.7711L549.881 43.2811L542.521 30.5211L533.051 46.9211L535.071 48.0911Z" fill="white"/>
<path d="M543.811 34.2713L544.751 32.6513C545.571 31.2413 547.091 30.3613 548.721 30.3613L549.431 30.3613L549.431 27.3613L548.721 27.3613C546.021 27.3613 543.501 28.8113 542.151 31.1513L541.211 32.7713L543.811 34.2713Z" fill="white"/>
<path d="M535.631 93.4411L549.391 77.5511L535.631 61.6611L535.631 69.0411L524.891 69.0411L531.161 58.1911L516.421 49.6812L511.381 58.4012C510.391 60.1212 510.391 62.2511 511.381 63.9711L522.531 83.2812C523.521 85.0012 525.371 86.0612 527.351 86.0612L535.631 86.0612L535.631 93.4411ZM545.421 77.5511L538.631 85.4012L538.631 83.0612L527.351 83.0612C526.441 83.0612 525.591 82.5712 525.131 81.7812L513.981 62.4711C513.521 61.6811 513.521 60.6912 513.981 59.9012L517.521 53.7812L527.061 59.2911L519.691 72.0512L538.631 72.0512L538.631 69.7112L545.421 77.5612L545.421 77.5511Z" fill="white"/>
<path d="M520.421 72.0411L522.291 72.0411L522.291 69.0411L520.421 69.0411C518.791 69.0411 517.271 68.1611 516.451 66.7511L516.101 66.1411L513.501 67.6411L513.851 68.2511C515.201 70.5911 517.721 72.0411 520.421 72.0411Z" fill="white"/>
<path d="M549.151 86.0217L559.221 86.0217C561.201 86.0217 563.051 84.9517 564.041 83.2417L575.191 63.9317C576.181 62.2117 576.181 60.0817 575.191 58.3617L571.051 51.1917L577.441 47.5017L556.801 43.5317L549.921 63.3917L556.311 59.7017L561.681 69.0017L549.151 69.0017L549.151 86.0217ZM568.971 48.9217L566.951 50.0917L572.591 59.8617C573.051 60.6517 573.051 61.6317 572.591 62.4317L561.441 81.7417C560.981 82.5317 560.131 83.0217 559.221 83.0217L552.151 83.0217L552.151 72.0017L566.881 72.0017L557.411 55.6017L555.391 56.7717L558.791 46.9617L568.981 48.9217L568.971 48.9217Z" fill="white"/>
<path d="M566.161 79.5615L566.511 78.9515C567.861 76.6115 567.861 73.7115 566.511 71.3715L565.571 69.7515L562.971 71.2515L563.911 72.8715C564.731 74.2815 564.731 76.0415 563.911 77.4515L563.561 78.0615L566.161 79.5615Z" fill="white"/>
</svg>
