<svg width="502" height="244" viewBox="0 0 502 244" fill="none" xmlns="http://www.w3.org/2000/svg">
<path d="M121 1.42975C154.27 1.42975 181.29 28.4397 181.29 61.7197C148.02 61.7197 121 34.7097 121 1.42975Z" fill="#0C4874"/>
<path d="M166.22 1.42975C199.49 1.42975 226.51 28.4397 226.51 61.7197C193.24 61.7197 166.22 34.7097 166.22 1.42975Z" fill="#0C4874"/>
<path d="M211.43 1.42975C244.7 1.42975 271.72 28.4397 271.72 61.7197C238.45 61.7197 211.43 34.7097 211.43 1.42975Z" fill="#0C4874"/>
<path d="M181.29 61.7097C181.29 94.9797 154.28 122 121 122C121 88.7297 148.01 61.7097 181.29 61.7097Z" fill="#0C4874"/>
<path d="M226.5 61.7097C226.5 94.9797 199.49 122 166.21 122C166.21 88.7297 193.22 61.7097 226.5 61.7097Z" fill="#0C4874"/>
<path d="M271.71 61.7097C271.71 94.9797 244.7 122 211.42 122C211.42 88.7297 238.43 61.7097 271.71 61.7097Z" fill="#0C4874"/>
<path d="M332.285 121.57C365.58 121.57 392.57 94.5795 392.57 61.285C392.57 27.9905 365.58 1 332.285 1C298.991 1 272 27.9905 272 61.285C272 94.5795 298.991 121.57 332.285 121.57Z" fill="#056DAC"/>
<path d="M312.601 54.3517L333.241 50.3817L326.851 46.6917L332.221 37.3917L338.491 48.2417L353.231 39.7317L348.191 31.0117C347.201 29.2917 345.351 28.2317 343.371 28.2317L321.071 28.2317C319.091 28.2317 317.241 29.3017 316.251 31.0217L312.111 38.1917L305.721 34.5017L312.601 54.3717L312.601 54.3517ZM324.781 48.9517L314.591 50.9117L311.191 41.1017L313.211 42.2717L318.851 32.5017C319.311 31.7117 320.161 31.2217 321.071 31.2217L343.371 31.2217C344.281 31.2217 345.141 31.7117 345.591 32.5117L349.131 38.6317L339.591 44.1417L332.231 31.3817L322.761 47.7817L324.781 48.9517Z" fill="white"/>
<path d="M333.521 35.1317L334.461 33.5117C335.281 32.1017 336.801 31.2217 338.431 31.2217L339.141 31.2217L339.141 28.2217L338.431 28.2217C335.731 28.2217 333.211 29.6717 331.861 32.0117L330.921 33.6317L333.521 35.1317Z" fill="white"/>
<path d="M325.341 94.302L339.101 78.412L325.341 62.522L325.341 69.902L314.601 69.902L320.871 59.052L306.131 50.542L301.091 59.262C300.101 60.982 300.101 63.112 301.091 64.832L312.241 84.142C313.231 85.862 315.081 86.922 317.061 86.922L325.341 86.922L325.341 94.302ZM335.131 78.412L328.341 86.262L328.341 83.922L317.061 83.922C316.151 83.922 315.301 83.432 314.841 82.642L303.691 63.332C303.231 62.542 303.231 61.552 303.691 60.762L307.231 54.642L316.771 60.152L309.401 72.912L328.341 72.912L328.341 70.572L335.131 78.422L335.131 78.412Z" fill="white"/>
<path d="M310.131 72.9019L312.001 72.9019L312.001 69.9019L310.131 69.9019C308.501 69.9019 306.981 69.0219 306.161 67.6119L305.811 67.002L303.211 68.502L303.561 69.1119C304.911 71.4519 307.431 72.9019 310.131 72.9019Z" fill="white"/>
<path d="M338.861 86.8816L348.931 86.8816C350.911 86.8816 352.761 85.8116 353.751 84.1016L364.901 64.7916C365.891 63.0716 365.891 60.9416 364.901 59.2216L360.761 52.0516L367.151 48.3616L346.511 44.3916L339.631 64.2516L346.021 60.5616L351.391 69.8616L338.861 69.8616L338.861 86.8816ZM358.681 49.7816L356.661 50.9516L362.301 60.7216C362.761 61.5116 362.761 62.4916 362.301 63.2916L351.151 82.6016C350.691 83.3916 349.841 83.8816 348.931 83.8816L341.861 83.8816L341.861 72.8616L356.591 72.8616L347.121 56.4616L345.101 57.6316L348.501 47.8216L358.691 49.7816L358.681 49.7816Z" fill="white"/>
<path d="M355.871 80.4216L356.221 79.8116C357.571 77.4716 357.571 74.5716 356.221 72.2316L355.281 70.6116L352.681 72.1116L353.621 73.7316C354.441 75.1416 354.441 76.9016 353.621 78.3116L353.271 78.9216L355.871 80.4216Z" fill="white"/>
<path d="M0.00999687 0.43C0.00999832 33.72 27 60.72 60.3 60.72C27 60.71 0.0100007 87.71 0.0100021 121L60.3 121C93.59 121 120.58 94.01 120.58 60.71C120.58 27.42 93.59 0.419994 60.29 0.419996L-5.27072e-06 0.419998L0.00999687 0.43Z" fill="#EE9137"/>
<path d="M385.57 122.991L385.57 243.561L325.29 183.001L385.57 122.991Z" fill="#056DAC"/>
<path d="M355.43 122.991L355.43 243.561L295.14 183.001L355.43 122.991Z" fill="#82B834"/>
<path d="M325.29 122.991L325.29 243.561L265 183.001L325.29 122.991Z" fill="#056DAC"/>
<path d="M182.285 123.43C148.99 123.43 122 150.421 122 183.715C122 217.009 148.991 244 182.285 244C215.579 244 242.57 217.009 242.57 183.715C242.57 150.421 215.579 123.43 182.285 123.43Z" fill="#EE9137"/>
<path d="M-5.33279e-06 122L122 122L122 244C54.6708 244 -2.38929e-06 189.339 -5.33279e-06 122Z" fill="#056DAC"/>
<path d="M385 122.57L385 243.14L505.57 243.14L505.57 122.57L385 122.57Z" fill="#0C4874"/>
<path d="M394 1.98962L394 182.85L401.54 182.85L401.54 1.98962L394 1.98962Z" fill="#EE9137"/>
<path d="M412.83 1.98962L412.83 182.85L420.37 182.85L420.37 1.98962L412.83 1.98962Z" fill="#EE9137"/>
<path d="M431.67 1.98962L431.67 182.85L439.21 182.85L439.21 1.98962L431.67 1.98962Z" fill="#EE9137"/>
<path d="M450.51 1.98962L450.51 182.85L458.05 182.85L458.05 1.98962L450.51 1.98962Z" fill="#EE9137"/>
<path d="M469.35 1.98962L469.35 182.85L476.89 182.85L476.89 1.98962L469.35 1.98962Z" fill="#EE9137"/>
<path d="M488.19 1.98962L488.19 182.85L495.73 182.85L495.73 1.98962L488.19 1.98962Z" fill="#EE9137"/>
<path d="M182.313 218.332C182.313 218.332 182.243 218.332 182.203 218.332C181.783 218.302 181.403 218.102 181.133 217.772L164.223 196.552C163.963 196.222 163.853 195.802 163.913 195.382C163.973 194.972 164.213 194.602 164.563 194.362L173.643 188.282C175.073 187.322 177.033 187.632 178.103 188.972L191.603 205.912C192.693 207.282 192.553 209.212 191.283 210.412L183.333 217.912C183.053 218.172 182.683 218.322 182.303 218.322L182.313 218.332ZM167.593 195.952L182.473 214.622L189.233 208.242C189.363 208.122 189.373 207.932 189.263 207.792L175.763 190.852C175.653 190.712 175.463 190.682 175.323 190.782L167.593 195.952Z" fill="white"/>
<path d="M217.394 194.422C217.164 194.422 216.934 194.422 216.704 194.412L206.014 194.082C205.184 194.052 204.534 193.362 204.564 192.542C204.584 191.712 205.284 191.022 206.104 191.092L216.794 191.422C217.964 191.462 219.144 191.392 220.304 191.212C222.514 190.882 224.524 189.882 226.114 188.312C226.954 187.482 226.974 186.122 226.164 185.262C225.334 184.392 224.174 183.892 222.984 183.892L217.904 183.852C215.424 183.832 212.994 183.372 210.684 182.462L208.124 181.462C204.684 180.112 200.924 179.672 197.264 180.192L197.064 180.222C193.524 180.722 190.214 182.422 187.744 185.012L185.534 187.322C183.614 189.332 181.394 190.982 178.914 192.232L178.524 192.422C177.784 192.792 176.884 192.502 176.514 191.762C176.144 191.022 176.434 190.122 177.174 189.752L177.564 189.552C179.734 188.462 181.684 187.012 183.364 185.252L185.574 182.942C188.504 179.872 192.444 177.852 196.644 177.252L196.844 177.222C201.014 176.632 205.294 177.132 209.214 178.672L211.774 179.672C213.744 180.442 215.804 180.842 217.914 180.852L222.994 180.892C224.994 180.902 226.934 181.742 228.324 183.192C230.274 185.222 230.224 188.482 228.214 190.452C226.174 192.462 223.584 193.752 220.744 194.182C219.634 194.352 218.504 194.432 217.384 194.432L217.394 194.422Z" fill="white"/>
<path d="M189.344 206.982C188.824 206.982 188.324 206.712 188.044 206.242C187.624 205.522 187.864 204.612 188.584 204.192C191.904 202.252 195.684 201.322 199.534 201.482L219.574 202.332C225.254 202.572 230.864 200.472 234.994 196.582L251.744 180.752C251.994 180.512 251.994 180.242 251.974 180.092C251.954 179.942 251.874 179.682 251.564 179.532C249.464 178.492 246.934 178.632 244.954 179.902L225.834 192.332C225.144 192.782 224.214 192.582 223.754 191.892C223.304 191.202 223.504 190.272 224.194 189.812L243.314 177.382C246.174 175.542 249.834 175.332 252.884 176.842C253.984 177.382 254.754 178.442 254.934 179.652C255.114 180.862 254.694 182.092 253.804 182.942L237.054 198.772C232.344 203.222 225.914 205.612 219.444 205.342L199.404 204.492C196.134 204.352 192.924 205.152 190.104 206.802C189.864 206.942 189.604 207.012 189.344 207.012V206.982Z" fill="white"/>
<path d="M237.784 184.262C237.254 184.262 236.734 183.972 236.464 183.472C234.824 180.432 231.714 179.702 228.424 178.932C227.234 178.652 226.014 178.372 224.904 177.962C223.104 177.312 221.864 177.632 220.144 178.072C218.704 178.442 217.064 178.852 214.834 178.812C210.224 178.702 207.414 180.552 207.384 180.572C206.704 181.032 205.764 180.862 205.304 180.182C204.834 179.502 205.004 178.572 205.684 178.102C205.824 178.002 209.244 175.702 214.894 175.812C216.724 175.862 218.074 175.502 219.394 175.162C221.294 174.672 223.254 174.162 225.934 175.132C226.874 175.472 227.964 175.732 229.114 176.002C232.554 176.802 236.844 177.802 239.124 182.042C239.514 182.772 239.244 183.682 238.514 184.072C238.284 184.192 238.044 184.252 237.804 184.252L237.784 184.262Z" fill="white"/>
<path d="M236.164 182.142C235.704 182.142 235.254 181.932 234.954 181.532C234.464 180.872 234.594 179.932 235.264 179.432C239.634 176.182 241.144 175.492 241.904 175.252C245.384 174.142 248.484 175.952 248.614 176.032C249.324 176.452 249.564 177.372 249.134 178.092C248.704 178.802 247.784 179.032 247.074 178.612C247.064 178.612 244.984 177.432 242.804 178.122C242.414 178.242 241.094 178.852 237.054 181.852C236.784 182.052 236.474 182.152 236.164 182.152V182.142Z" fill="white"/>
<path d="M220.534 177.922C219.824 177.922 219.234 177.432 219.074 176.772C219.074 176.752 219.064 176.732 219.064 176.722C218.374 173.882 217.134 170.692 215.484 167.512C215.184 166.922 214.874 166.352 214.564 165.792C211.944 161.132 208.824 157.212 206.434 155.552C205.754 155.082 205.584 154.142 206.054 153.462C206.524 152.782 207.454 152.612 208.144 153.082C210.924 155.002 214.304 159.202 217.184 164.312C217.524 164.912 217.854 165.522 218.164 166.142C219.914 169.512 221.234 172.922 221.984 175.992C222.024 176.132 222.044 176.292 222.044 176.412C222.044 177.242 221.374 177.912 220.544 177.912L220.534 177.922Z" fill="white"/>
<path d="M212.123 169.692C211.603 169.692 211.083 169.652 210.563 169.582C206.533 169.012 203.313 166.282 201.943 162.282C199.483 155.122 197.753 153.642 194.883 151.182C194.503 150.852 194.303 150.352 194.373 149.842C194.443 149.342 194.753 148.902 195.213 148.682C203.623 144.682 212.813 145.682 217.573 151.112C220.953 154.972 222.573 161.942 219.583 166.182C218.023 168.392 215.203 169.692 212.133 169.692H212.123ZM198.623 150.502C200.963 152.732 202.673 155.202 204.773 161.302C205.783 164.252 208.053 166.182 210.983 166.602C213.483 166.962 215.963 166.092 217.123 164.442C219.023 161.742 218.163 156.332 215.313 153.082C211.813 149.092 205.173 148.132 198.623 150.502Z" fill="white"/>
<path d="M220.503 177.932C219.673 177.932 219.003 177.262 219.003 176.432C219.003 176.302 219.023 176.142 219.063 176.012C219.533 174.082 220.383 171.922 221.493 169.772C221.683 169.392 221.903 168.992 222.123 168.602C223.983 165.302 226.193 162.572 228.013 161.312C228.693 160.842 229.633 161.012 230.103 161.692C230.573 162.372 230.403 163.312 229.723 163.782C228.273 164.782 226.363 167.192 224.743 170.072C224.543 170.412 224.353 170.772 224.173 171.122C223.153 173.092 222.403 175.022 221.983 176.722C221.983 176.732 221.983 176.742 221.983 176.752C221.833 177.422 221.233 177.922 220.523 177.922L220.503 177.932Z" fill="white"/>
<path d="M225.793 172.822C223.673 172.822 221.713 171.912 220.623 170.362C218.583 167.462 219.653 162.742 221.933 160.142C225.113 156.522 231.203 155.832 236.743 158.472C237.203 158.692 237.523 159.122 237.583 159.632C237.653 160.132 237.453 160.642 237.073 160.972C235.263 162.522 234.273 163.372 232.763 167.762C231.823 170.492 229.623 172.352 226.863 172.752C226.503 172.802 226.153 172.832 225.793 172.832V172.822ZM229.913 159.862C227.573 159.862 225.493 160.632 224.183 162.122C222.553 163.972 222.013 167.142 223.073 168.642C223.683 169.512 225.073 169.972 226.433 169.782C227.213 169.672 229.113 169.162 229.923 166.792C231.093 163.372 232.093 161.702 233.323 160.372C232.163 160.032 231.003 159.862 229.913 159.862Z" fill="white"/>
<path d="M233.864 180.572C233.434 180.572 233.014 180.392 232.714 180.042C232.184 179.412 232.254 178.472 232.884 177.932C232.934 177.892 234.194 176.822 236.274 175.932C238.654 174.922 240.444 176.312 241.054 177.192C241.524 177.872 241.364 178.802 240.674 179.282C240.004 179.752 239.084 179.592 238.604 178.932C238.404 178.682 238.044 178.432 237.444 178.692C235.814 179.382 234.834 180.202 234.824 180.212C234.544 180.452 234.194 180.562 233.854 180.562L233.864 180.572Z" fill="white"/>
</svg>
