<svg width="26" height="26" viewBox="0 0 26 26" fill="none" xmlns="http://www.w3.org/2000/svg">
<path d="M5.31713 0.5625C2.62302 0.5625 0.41806 2.76741 0.41806 5.46157V20.6642C0.41806 23.3583 2.62297 25.5625 5.31713 25.5625H20.5198C23.2139 25.5625 25.4181 23.3584 25.4181 20.6642V5.46157C25.4181 2.76746 23.2139 0.5625 20.5198 0.5625H5.31713ZM6.54931 4.688C7.84108 4.688 8.63675 5.53602 8.66131 6.65074C8.66131 7.74084 7.84103 8.61269 6.52433 8.61269H6.50009C5.23291 8.61269 4.41388 7.74089 4.41388 6.65074C4.41388 5.53605 5.2577 4.688 6.54929 4.688H6.54931ZM17.6812 9.89803C20.1655 9.89803 22.0278 11.5218 22.0278 15.0112V21.5252H18.2524V15.4479C18.2524 13.9207 17.7059 12.8788 16.3396 12.8788C15.2966 12.8788 14.6748 13.5811 14.4019 14.2595C14.3022 14.5022 14.2776 14.8412 14.2776 15.1807V21.5252H10.5022C10.5022 21.5252 10.5517 11.2304 10.5022 10.1644H14.2784V11.7732C14.7801 10.9992 15.6776 9.898 17.6812 9.898V9.89803ZM4.63658 10.1653H8.41205V21.5253H4.63658V10.1653Z" fill="#747277"/>
</svg>
