<svg width="27" height="18" viewBox="0 0 27 18" fill="none" xmlns="http://www.w3.org/2000/svg">
<path d="M25.9718 3.08981C25.824 2.56269 25.5362 2.08546 25.1389 1.70886C24.7303 1.32067 24.2296 1.043 23.684 0.902035C21.6419 0.36379 13.4606 0.363791 13.4606 0.363791C10.0499 0.324985 6.64001 0.49566 3.25023 0.874851C2.70458 1.02623 2.2048 1.31011 1.79533 1.70125C1.39301 2.08835 1.1016 2.5657 0.949365 3.08872C0.583677 5.05875 0.406001 7.05906 0.418731 9.0627C0.405683 11.0645 0.582923 13.0642 0.949365 15.0367C1.09833 15.5575 1.38866 16.0327 1.79207 16.4165C2.19548 16.8004 2.69785 17.0777 3.25023 17.2245C5.31948 17.7616 13.4606 17.7616 13.4606 17.7616C16.8756 17.8005 20.2898 17.6298 23.684 17.2505C24.2296 17.1096 24.7303 16.8319 25.1389 16.4437C25.536 16.0672 25.8235 15.5899 25.9707 15.0628C26.3459 13.0935 26.5284 11.0924 26.5155 9.08771C26.5437 7.07457 26.3615 5.06399 25.9718 3.08872V3.08981ZM10.8596 12.7858V5.34065L17.6665 9.06379L10.8596 12.7858Z" fill="#747277"/>
</svg>
