<svg width="301" height="109" viewBox="0 0 301 109" fill="none" xmlns="http://www.w3.org/2000/svg">
<path d="M11.8284 41.7114C11.7036 41.4397 11.5347 41.19 11.3365 40.9771C11.1383 40.7569 10.9106 40.5733 10.661 40.4191C10.4114 40.2649 10.1397 40.1474 9.85335 40.0667C9.567 39.9859 9.26597 39.9419 8.95025 39.9419C8.50237 39.9419 8.08386 40.0226 7.69472 40.1915C7.30557 40.3604 6.96049 40.588 6.66679 40.8817C6.3731 41.1754 6.14549 41.5131 5.97662 41.9096C5.80775 42.3061 5.72698 42.7319 5.72698 43.1872C5.72698 43.6424 5.81509 44.0682 5.97662 44.4574C6.14549 44.8539 6.3731 45.1916 6.66679 45.4853C6.96049 45.7716 7.30557 46.0066 7.69472 46.1681C8.08386 46.337 8.50237 46.4178 8.95025 46.4178C9.25863 46.4178 9.55232 46.3811 9.84601 46.2929C10.1324 46.2122 10.404 46.0947 10.6537 45.9405C10.9033 45.7863 11.1309 45.6028 11.3292 45.3898C11.5274 45.1696 11.6889 44.9273 11.8211 44.6556H12.7536C12.6067 45.0594 12.4085 45.4119 12.1442 45.7276C11.8798 46.0433 11.5788 46.3076 11.241 46.5279C10.9033 46.7482 10.5362 46.9097 10.147 47.0272C9.75056 47.1447 9.35408 47.2034 8.95759 47.2034C8.57579 47.2034 8.21602 47.1593 7.86359 47.0639C7.51116 46.9684 7.18076 46.8363 6.87972 46.6601C6.57134 46.4838 6.29968 46.2783 6.0427 46.036C5.78572 45.7937 5.57279 45.522 5.39658 45.221C5.22036 44.9199 5.08086 44.6042 4.98541 44.2591C4.88262 43.914 4.83856 43.5616 4.83856 43.1872C4.83856 42.8127 4.88996 42.4529 4.98541 42.1078C5.08086 41.7627 5.22036 41.4397 5.39658 41.146C5.57279 40.845 5.78572 40.5733 6.0427 40.331C6.29234 40.0887 6.57134 39.8831 6.87972 39.7069C7.18076 39.5307 7.51116 39.3985 7.86359 39.3031C8.21602 39.2076 8.58313 39.1636 8.95759 39.1636C9.36142 39.1636 9.7579 39.2223 10.147 39.3324C10.5362 39.4426 10.9033 39.6115 11.241 39.8317C11.5788 40.052 11.8798 40.3163 12.1442 40.632C12.4085 40.9478 12.6067 41.3075 12.7536 41.7187H11.8284V41.7114Z" fill="#EE9137"/>
<path d="M20.6245 39.3179H21.5202V44.0537C21.5202 44.5162 21.4395 44.9421 21.2853 45.3312C21.1238 45.7204 20.9035 46.0508 20.6245 46.3224C20.3455 46.5941 20.0077 46.8144 19.6186 46.9685C19.2294 47.1227 18.8036 47.1962 18.3484 47.1962C17.8931 47.1962 17.482 47.1227 17.1002 46.9759C16.711 46.829 16.3806 46.6161 16.0943 46.3445C15.8079 46.0728 15.5877 45.735 15.4261 45.3532C15.2646 44.9714 15.1838 44.5309 15.1838 44.0537V39.3179H16.0723V44.0463C16.0723 44.3694 16.1237 44.6704 16.2191 44.9568C16.3219 45.2431 16.4687 45.4927 16.6596 45.7057C16.8505 45.9186 17.0928 46.0948 17.3718 46.2196C17.6582 46.3445 17.9813 46.4105 18.3484 46.4105C18.7155 46.4105 19.0239 46.3518 19.3029 46.227C19.5819 46.1022 19.8242 45.9333 20.0151 45.7277C20.2133 45.5148 20.3602 45.2651 20.463 44.9861C20.5657 44.6998 20.6171 44.3987 20.6171 44.0683V39.3179H20.6245Z" fill="#EE9137"/>
<path d="M24.2736 39.3252H25.162V46.2637H28.9874V47.0493H24.2736V39.3252Z" fill="#EE9137"/>
<path d="M31.7481 40.1108H29.2664V39.3252H35.1329V40.1108H32.6439V47.0493H31.7481V40.1108Z" fill="#EE9137"/>
<path d="M42.6221 39.3179H43.5179V44.0537C43.5179 44.5162 43.4371 44.9421 43.2829 45.3312C43.1214 45.7204 42.9011 46.0508 42.6221 46.3224C42.3431 46.5941 42.0053 46.8144 41.6162 46.9685C41.2271 47.1227 40.8012 47.1962 40.346 47.1962C39.8908 47.1962 39.4796 47.1227 39.0978 46.9759C38.7087 46.829 38.3783 46.6161 38.0919 46.3445C37.8056 46.0728 37.5853 45.735 37.4238 45.3532C37.2622 44.9714 37.1815 44.5309 37.1815 44.0537V39.3179H38.0699V44.0463C38.0699 44.3694 38.1213 44.6704 38.2167 44.9568C38.3195 45.2431 38.4664 45.4927 38.6573 45.7057C38.8482 45.9186 39.0905 46.0948 39.3695 46.2196C39.6558 46.3445 39.9789 46.4105 40.346 46.4105C40.7131 46.4105 41.0215 46.3518 41.3005 46.227C41.5795 46.1022 41.8218 45.9333 42.0127 45.7277C42.2109 45.5148 42.3578 45.2651 42.4606 44.9861C42.5634 44.6998 42.6148 44.3987 42.6148 44.0683V39.3179H42.6221Z" fill="#EE9137"/>
<path d="M49.443 44.1344H47.1596V47.0566H46.2712V39.3325H49.5385C49.9056 39.3325 50.2434 39.3913 50.5517 39.5087C50.8601 39.6262 51.1318 39.7877 51.3521 40.0007C51.5797 40.2136 51.7559 40.4632 51.8807 40.7569C52.0055 41.0506 52.0716 41.381 52.0716 41.7481C52.0716 42.0418 52.0275 42.3062 51.9468 42.5558C51.866 42.8054 51.7485 43.0257 51.6017 43.2166C51.4548 43.4148 51.2786 43.5837 51.0657 43.7159C50.8528 43.8554 50.6252 43.9582 50.3682 44.0316L52.2331 47.0566H51.1979L49.443 44.1344ZM49.5165 43.3488C49.7514 43.3488 49.979 43.312 50.1773 43.2313C50.3829 43.1505 50.5517 43.0404 50.7059 42.9082C50.8528 42.7687 50.9702 42.5998 51.051 42.4016C51.1318 42.2034 51.1758 41.9831 51.1758 41.7408C51.1758 41.4985 51.1318 41.2856 51.051 41.08C50.9629 40.8817 50.8528 40.7055 50.6986 40.566C50.5517 40.4265 50.3755 40.3164 50.1699 40.2356C49.9644 40.1549 49.7441 40.1181 49.5091 40.1181H47.1669V43.3561H49.5238L49.5165 43.3488Z" fill="#EE9137"/>
<path d="M59.2083 45.2431H55.2141L54.4505 47.0493H53.5034L56.7854 39.3252H57.6518L60.9264 47.0493H59.9793L59.2157 45.2431H59.2083ZM55.5372 44.4648H58.8779L57.2406 40.6101L57.2039 40.4779L57.1745 40.6101L55.5298 44.4648H55.5372Z" fill="#EE9137"/>
<path d="M62.9456 39.3252H63.834V46.2637H67.6593V47.0493H62.9456V39.3252Z" fill="#EE9137"/>
<path d="M11.8284 29.1342C11.7036 28.8625 11.5347 28.6129 11.3365 28.4C11.1383 28.1797 10.9106 27.9961 10.661 27.842C10.4114 27.6878 10.1397 27.5703 9.85335 27.4895C9.567 27.4088 9.26597 27.3647 8.95025 27.3647C8.50237 27.3647 8.08386 27.4455 7.69472 27.6143C7.30557 27.7832 6.96049 28.0108 6.66679 28.3045C6.3731 28.5982 6.14549 28.936 5.97662 29.3324C5.80775 29.7289 5.72698 30.1548 5.72698 30.61C5.72698 31.0652 5.81509 31.4911 5.97662 31.8802C6.14549 32.2767 6.3731 32.6145 6.66679 32.9081C6.96049 33.1945 7.30557 33.4295 7.69472 33.591C8.08386 33.7599 8.50237 33.8406 8.95025 33.8406C9.25863 33.8406 9.55232 33.8039 9.84601 33.7158C10.1324 33.635 10.404 33.5176 10.6537 33.3634C10.9033 33.2092 11.1309 33.0256 11.3292 32.8127C11.5274 32.5924 11.6889 32.3501 11.8211 32.0785H12.7536C12.6067 32.4823 12.4085 32.8347 12.1442 33.1504C11.8798 33.4662 11.5788 33.7305 11.241 33.9508C10.9033 34.171 10.5362 34.3326 10.147 34.45C9.75056 34.5675 9.35408 34.6262 8.95759 34.6262C8.57579 34.6262 8.21602 34.5822 7.86359 34.4867C7.51116 34.3913 7.18076 34.2591 6.87972 34.0829C6.57134 33.9067 6.29968 33.7011 6.0427 33.4588C5.78572 33.2165 5.57279 32.9449 5.39658 32.6438C5.22036 32.3428 5.08086 32.0271 4.98541 31.682C4.88262 31.3369 4.83856 30.9845 4.83856 30.61C4.83856 30.2355 4.88996 29.8758 4.98541 29.5307C5.08086 29.1856 5.22036 28.8625 5.39658 28.5688C5.57279 28.2678 5.78572 27.9961 6.0427 27.7539C6.29234 27.5116 6.57134 27.306 6.87972 27.1298C7.18076 26.9535 7.51116 26.8214 7.86359 26.7259C8.21602 26.6305 8.58313 26.5864 8.95759 26.5864C9.36142 26.5864 9.7579 26.6452 10.147 26.7553C10.5362 26.8654 10.9033 27.0343 11.241 27.2546C11.5788 27.4748 11.8798 27.7392 12.1442 28.0549C12.4085 28.3706 12.6067 28.7304 12.7536 29.1415H11.8284V29.1342Z" fill="#EE9137"/>
<path d="M13.3263 30.6027C13.3263 30.2282 13.3777 29.8685 13.4731 29.5234C13.5686 29.1783 13.7081 28.8552 13.8843 28.5615C14.0605 28.2605 14.2735 27.9888 14.5304 27.7465C14.7801 27.5042 15.0591 27.2986 15.3675 27.1224C15.6685 26.9462 15.9989 26.8141 16.3513 26.7186C16.7038 26.6232 17.0709 26.5791 17.4453 26.5791C17.8198 26.5791 18.1869 26.6305 18.5393 26.7186C18.8918 26.8141 19.2222 26.9462 19.5232 27.1224C19.8316 27.2986 20.1032 27.5042 20.3602 27.7465C20.6099 27.9888 20.8301 28.2605 21.0063 28.5615C21.1826 28.8626 21.3221 29.1856 21.4249 29.5234C21.5203 29.8685 21.5717 30.2282 21.5717 30.6027C21.5717 30.9771 21.5203 31.3296 21.4249 31.6747C21.3221 32.0197 21.1899 32.3355 21.0063 32.6365C20.8301 32.9375 20.6099 33.2092 20.3602 33.4515C20.1106 33.6938 19.8316 33.8994 19.5232 34.0756C19.2222 34.2518 18.8918 34.384 18.5393 34.4794C18.1869 34.5749 17.8198 34.6189 17.4453 34.6189C17.0709 34.6189 16.7038 34.5749 16.3513 34.4794C15.9989 34.384 15.6685 34.2518 15.3675 34.0756C15.0591 33.8994 14.7874 33.6938 14.5304 33.4515C14.2735 33.2092 14.0605 32.9375 13.8843 32.6365C13.7081 32.3355 13.5686 32.0197 13.4731 31.6747C13.3703 31.3296 13.3263 30.9771 13.3263 30.6027ZM14.2147 30.6027C14.2147 31.0579 14.3028 31.4838 14.4644 31.8729C14.6332 32.2694 14.8608 32.6071 15.1545 32.9008C15.4482 33.1872 15.7933 33.4221 16.1824 33.5837C16.5716 33.7525 16.9901 33.8333 17.438 33.8333C17.8859 33.8333 18.3044 33.7525 18.7009 33.5837C19.0973 33.4148 19.4351 33.1872 19.7288 32.9008C20.0225 32.6145 20.2501 32.2694 20.419 31.8729C20.5878 31.4764 20.6759 31.0579 20.6759 30.6027C20.6759 30.1475 20.5878 29.7216 20.419 29.3251C20.2501 28.9286 20.0151 28.5909 19.7288 28.2972C19.4351 28.0035 19.0973 27.7759 18.7009 27.607C18.3044 27.4382 17.8859 27.3574 17.438 27.3574C16.9901 27.3574 16.5716 27.4382 16.1824 27.607C15.7933 27.7759 15.4482 28.0035 15.1545 28.2972C14.8608 28.5909 14.6332 28.9286 14.4644 29.3251C14.2955 29.7216 14.2147 30.1475 14.2147 30.6027Z" fill="#EE9137"/>
<path d="M29.1856 34.4721H28.4294L23.5247 28.3266V34.4721H22.6363V26.748H23.3779L28.2972 32.9082V26.748H29.1856V34.4721Z" fill="#EE9137"/>
<path d="M37.2328 29.1342C37.108 28.8625 36.9391 28.6129 36.7409 28.4C36.5426 28.1797 36.315 27.9961 36.0654 27.842C35.8157 27.6878 35.5441 27.5703 35.2577 27.4895C34.9714 27.4088 34.6703 27.3647 34.3546 27.3647C33.9067 27.3647 33.4882 27.4455 33.0991 27.6143C32.7099 27.7832 32.3648 28.0108 32.0712 28.3045C31.7775 28.5982 31.5499 28.936 31.381 29.3324C31.2121 29.7289 31.1313 30.1548 31.1313 30.61C31.1313 31.0652 31.2194 31.4911 31.381 31.8802C31.5499 32.2767 31.7775 32.6145 32.0712 32.9081C32.3648 33.1945 32.7099 33.4295 33.0991 33.591C33.4882 33.7599 33.9067 33.8406 34.3546 33.8406C34.663 33.8406 34.9567 33.8039 35.2504 33.7158C35.5367 33.635 35.8084 33.5176 36.058 33.3634C36.3077 33.2092 36.5353 33.0256 36.7335 32.8127C36.9318 32.5924 37.0933 32.3501 37.2254 32.0785H38.1579C38.0111 32.4823 37.8128 32.8347 37.5485 33.1504C37.2842 33.4662 36.9832 33.7305 36.6454 33.9508C36.3077 34.171 35.9405 34.3326 35.5514 34.45C35.1549 34.5675 34.7584 34.6262 34.362 34.6262C33.9802 34.6262 33.6204 34.5822 33.2679 34.4867C32.9155 34.3913 32.5851 34.2591 32.2841 34.0829C31.9757 33.9067 31.704 33.7011 31.4471 33.4588C31.1901 33.2165 30.9772 32.9449 30.8009 32.6438C30.6247 32.3428 30.4852 32.0271 30.3898 31.682C30.287 31.3369 30.2429 30.9845 30.2429 30.61C30.2429 30.2355 30.2943 29.8758 30.3898 29.5307C30.4852 29.1856 30.6247 28.8625 30.8009 28.5688C30.9772 28.2678 31.1901 27.9961 31.4471 27.7539C31.6967 27.5116 31.9757 27.306 32.2841 27.1298C32.5851 26.9535 32.9155 26.8214 33.2679 26.7259C33.6204 26.6305 33.9875 26.5864 34.362 26.5864C34.7658 26.5864 35.1623 26.6452 35.5514 26.7553C35.9405 26.8654 36.3077 27.0343 36.6454 27.2546C36.9832 27.4748 37.2842 27.7392 37.5485 28.0549C37.8128 28.3706 38.0111 28.7304 38.1579 29.1415H37.2328V29.1342Z" fill="#EE9137"/>
<path d="M44.5677 26.7407H45.4635V31.4765C45.4635 31.9391 45.3827 32.3649 45.2285 32.7541C45.067 33.1432 44.8467 33.4736 44.5677 33.7453C44.2887 34.0169 43.951 34.2372 43.5618 34.3914C43.1727 34.5456 42.7468 34.619 42.2916 34.619C41.8364 34.619 41.4252 34.5456 41.0434 34.3987C40.6543 34.2519 40.3239 34.039 40.0375 33.7673C39.7512 33.4956 39.5309 33.1579 39.3694 32.7761C39.2078 32.3943 39.1271 31.9538 39.1271 31.4765V26.7407H40.0155V31.4692C40.0155 31.7922 40.0669 32.0933 40.1623 32.3796C40.2651 32.666 40.412 32.9156 40.6029 33.1285C40.7938 33.3415 41.0361 33.5177 41.3151 33.6425C41.6014 33.7673 41.9245 33.8334 42.2916 33.8334C42.6587 33.8334 42.9671 33.7746 43.2461 33.6498C43.5251 33.525 43.7674 33.3561 43.9583 33.1505C44.1565 32.9376 44.3034 32.688 44.4062 32.409C44.509 32.1226 44.5604 31.8216 44.5604 31.4912V26.7407H44.5677Z" fill="#EE9137"/>
<path d="M49.9349 31.5499H47.6515V34.4721H46.7631V26.748H50.0304C50.3975 26.748 50.7352 26.8068 51.0436 26.9243C51.352 27.0417 51.6237 27.2033 51.8439 27.4162C52.0715 27.6291 52.2478 27.8788 52.3726 28.1725C52.4974 28.4661 52.5635 28.7965 52.5635 29.1637C52.5635 29.4574 52.5194 29.7217 52.4387 29.9713C52.3579 30.221 52.2404 30.4412 52.0936 30.6321C51.9467 30.8304 51.7705 30.9992 51.5576 31.1314C51.3447 31.2709 51.117 31.3737 50.8601 31.4471L52.725 34.4721H51.6897L49.9349 31.5499ZM50.0084 30.7643C50.2433 30.7643 50.4709 30.7276 50.6692 30.6468C50.8748 30.566 51.0436 30.4559 51.1978 30.3237C51.3447 30.1842 51.4621 30.0154 51.5429 29.8171C51.6237 29.6189 51.6677 29.3986 51.6677 29.1563C51.6677 28.914 51.6237 28.7011 51.5429 28.4955C51.4548 28.2973 51.3447 28.1211 51.1905 27.9816C51.0436 27.842 50.8674 27.7319 50.6618 27.6512C50.4562 27.5704 50.236 27.5337 50.001 27.5337H47.6588V30.7716H50.0157L50.0084 30.7643Z" fill="#EE9137"/>
<path d="M53.8044 32.2473C53.8044 32.4529 53.8557 32.6585 53.9659 32.8494C54.0687 33.0403 54.2155 33.2092 54.3991 33.356C54.5826 33.5029 54.7956 33.6203 55.0452 33.7085C55.2948 33.7966 55.5592 33.8406 55.8455 33.8406C56.5871 33.8406 57.1451 33.7158 57.5269 33.4588C57.9087 33.2092 58.0996 32.8347 58.0996 32.3428C58.0996 32.0785 58.0409 31.8655 57.9234 31.6893C57.8059 31.5131 57.6517 31.3663 57.4461 31.2561C57.2479 31.146 57.0056 31.0505 56.7339 30.9771C56.4623 30.9037 56.1759 30.845 55.8602 30.7936C55.6766 30.7642 55.4784 30.7348 55.2728 30.7055C55.0672 30.6687 54.8616 30.6247 54.6634 30.566C54.4652 30.5072 54.2743 30.4338 54.0907 30.3457C53.9071 30.2576 53.7456 30.1474 53.6061 30.0153C53.4666 29.8831 53.3565 29.7216 53.2757 29.538C53.1949 29.3545 53.1509 29.1269 53.1509 28.8699C53.1509 28.5688 53.2023 28.2752 53.3051 28.0035C53.4079 27.7318 53.5694 27.4822 53.797 27.2766C54.0246 27.0637 54.3183 26.9021 54.6854 26.7773C55.0525 26.6525 55.5004 26.5864 56.0364 26.5864C56.4476 26.5864 56.8147 26.6378 57.1378 26.748C57.4608 26.8581 57.7398 27.0049 57.9674 27.1958C58.195 27.3867 58.3713 27.6143 58.4887 27.886C58.6136 28.1503 58.6723 28.444 58.6723 28.7671H57.7765C57.7765 28.5615 57.7325 28.3706 57.6517 28.2017C57.5636 28.0329 57.4461 27.886 57.2919 27.7685C57.1378 27.6437 56.9469 27.5556 56.7266 27.4895C56.499 27.4234 56.2567 27.3867 55.985 27.3867C55.6106 27.3867 55.3022 27.4308 55.0525 27.5116C54.8029 27.5923 54.612 27.7025 54.4652 27.8346C54.3183 27.9668 54.2155 28.121 54.1494 28.2898C54.0907 28.4587 54.0613 28.6276 54.0613 28.8038C54.0613 29.0314 54.1127 29.215 54.2229 29.3618C54.333 29.5087 54.4798 29.6335 54.6707 29.7363C54.8616 29.8317 55.0966 29.9125 55.3609 29.9712C55.6252 30.03 55.9263 30.074 56.2493 30.1107C56.4623 30.1474 56.6752 30.1915 56.8955 30.2355C57.1157 30.2796 57.3213 30.3457 57.5269 30.4191C57.7325 30.4925 57.9234 30.5806 58.0996 30.6908C58.2758 30.8009 58.43 30.9331 58.5622 31.0873C58.6943 31.2414 58.7971 31.425 58.8779 31.6306C58.9586 31.8362 58.9954 32.0785 58.9954 32.3575C58.9954 32.7172 58.9219 33.0403 58.7824 33.3193C58.6429 33.5983 58.43 33.8406 58.1583 34.0315C57.8867 34.2298 57.5563 34.3766 57.1598 34.4794C56.7706 34.5822 56.3228 34.6336 55.8308 34.6336C55.3683 34.6336 54.9571 34.5602 54.5973 34.4207C54.2375 34.2812 53.9292 34.0976 53.6795 33.8773C53.4299 33.6571 53.2463 33.4001 53.1142 33.1137C52.9894 32.8274 52.9233 32.541 52.9233 32.2473H53.8117H53.8044Z" fill="#EE9137"/>
<path d="M59.5607 30.6027C59.5607 30.2282 59.6121 29.8685 59.7076 29.5234C59.803 29.1783 59.9425 28.8552 60.1187 28.5615C60.295 28.2605 60.5079 27.9888 60.7649 27.7465C61.0145 27.5042 61.2935 27.2986 61.6019 27.1224C61.9029 26.9462 62.2333 26.8141 62.5858 26.7186C62.9382 26.6232 63.3053 26.5791 63.6798 26.5791C64.0542 26.5791 64.4213 26.6305 64.7738 26.7186C65.1262 26.8141 65.4566 26.9462 65.7576 27.1224C66.066 27.2986 66.3377 27.5042 66.5946 27.7465C66.8443 27.9888 67.0646 28.2605 67.2408 28.5615C67.417 28.8626 67.5565 29.1856 67.6593 29.5234C67.7547 29.8685 67.8061 30.2282 67.8061 30.6027C67.8061 30.9771 67.7547 31.3296 67.6593 31.6747C67.5565 32.0197 67.4243 32.3355 67.2408 32.6365C67.0646 32.9375 66.8443 33.2092 66.5946 33.4515C66.345 33.6938 66.066 33.8994 65.7576 34.0756C65.4566 34.2518 65.1262 34.384 64.7738 34.4794C64.4213 34.5749 64.0542 34.6189 63.6798 34.6189C63.3053 34.6189 62.9382 34.5749 62.5858 34.4794C62.2333 34.384 61.9029 34.2518 61.6019 34.0756C61.2935 33.8994 61.0218 33.6938 60.7649 33.4515C60.5079 33.2092 60.295 32.9375 60.1187 32.6365C59.9425 32.3355 59.803 32.0197 59.7076 31.6747C59.6048 31.3296 59.5607 30.9771 59.5607 30.6027ZM60.4491 30.6027C60.4491 31.0579 60.5373 31.4838 60.6988 31.8729C60.8677 32.2694 61.0953 32.6071 61.389 32.9008C61.6827 33.1872 62.0277 33.4221 62.4169 33.5837C62.806 33.7525 63.2245 33.8333 63.6724 33.8333C64.1203 33.8333 64.5388 33.7525 64.9353 33.5837C65.3318 33.4148 65.6695 33.1872 65.9632 32.9008C66.2569 32.6145 66.4845 32.2694 66.6534 31.8729C66.8223 31.4764 66.9104 31.0579 66.9104 30.6027C66.9104 30.1475 66.8223 29.7216 66.6534 29.3251C66.4845 28.9286 66.2496 28.5909 65.9632 28.2972C65.6695 28.0035 65.3318 27.7759 64.9353 27.607C64.5388 27.4382 64.1203 27.3574 63.6724 27.3574C63.2245 27.3574 62.806 27.4382 62.4169 27.607C62.0277 27.7759 61.6827 28.0035 61.389 28.2972C61.0953 28.5909 60.8677 28.9286 60.6988 29.3251C60.5299 29.7216 60.4491 30.1475 60.4491 30.6027Z" fill="#EE9137"/>
<path d="M71.0441 40.7498H74.5831C75.3907 40.7498 76.0368 40.5149 76.5214 40.0449C76.9987 39.575 77.241 38.8922 77.241 37.9964L77.2557 21.1973H84.2529V38.0185C84.2529 39.4429 84.0032 40.6837 83.5113 41.763C83.0194 42.835 82.3365 43.7308 81.4628 44.4577C80.5891 45.1846 79.5611 45.7279 78.3864 46.095C77.2043 46.4621 75.934 46.6457 74.561 46.6457H71.0441V40.7498Z" fill="#056DAC"/>
<path d="M88.0636 36.8953C88.0636 35.4709 88.3279 34.1272 88.8492 32.8644C89.3705 31.6015 90.1121 30.4928 91.0739 29.553C92.0357 28.6132 93.1885 27.8643 94.5321 27.3062C95.8758 26.7482 97.3662 26.4766 99.0036 26.4766C100.641 26.4766 102.153 26.7482 103.512 27.2989C104.87 27.8496 106.03 28.5985 106.992 29.5456C107.954 30.4928 108.695 31.6015 109.224 32.8644C109.753 34.1272 110.017 35.4709 110.017 36.8953C110.017 38.3197 109.753 39.678 109.224 40.9482C108.695 42.2111 107.947 43.3198 106.977 44.2596C106.008 45.1994 104.848 45.941 103.49 46.4843C102.131 47.0277 100.619 47.2993 98.9595 47.2993C97.3002 47.2993 95.8537 47.0277 94.5174 46.477C93.1811 45.9263 92.0284 45.1847 91.0739 44.2449C90.1194 43.3051 89.3778 42.1964 88.8492 40.9336C88.3205 39.6707 88.0562 38.327 88.0562 36.9026L88.0636 36.8953ZM94.9286 36.8806C94.9286 37.6075 95.0387 38.2536 95.259 38.8337C95.4793 39.4137 95.773 39.9056 96.1474 40.3095C96.5219 40.7133 96.9551 41.029 97.4544 41.2419C97.9536 41.4622 98.4896 41.565 99.0623 41.565C99.635 41.565 100.178 41.4549 100.678 41.2419C101.177 41.029 101.617 40.7133 101.977 40.3095C102.337 39.9056 102.623 39.4137 102.836 38.8337C103.049 38.2536 103.152 37.6001 103.152 36.8806C103.152 36.1611 103.042 35.5296 102.836 34.9569C102.623 34.3842 102.33 33.8923 101.955 33.4885C101.581 33.0846 101.14 32.7689 100.648 32.556C100.149 32.3357 99.613 32.2256 99.0403 32.2256C98.4676 32.2256 97.9096 32.3357 97.4103 32.556C96.911 32.7763 96.4778 33.0846 96.1107 33.4811C95.7436 33.8776 95.4499 34.3695 95.237 34.9496C95.0241 35.5296 94.9213 36.1757 94.9213 36.8879L94.9286 36.8806Z" fill="#056DAC"/>
<path d="M133.189 27.1372L125.091 46.6457H118.975L110.891 27.1372H118.24L121.985 37.6661H122.044L125.803 27.1372H133.189Z" fill="#056DAC"/>
<path d="M141.736 39.6707C142.132 40.3095 142.654 40.8014 143.285 41.1465C143.924 41.4989 144.607 41.6678 145.341 41.6678C145.914 41.6678 146.398 41.6384 146.78 41.5724C147.169 41.5136 147.507 41.4255 147.793 41.3227C148.08 41.2199 148.329 41.0951 148.549 40.9556C148.77 40.8161 148.997 40.6693 149.232 40.5077L152.933 44.4726C152.624 44.7589 152.221 45.0673 151.729 45.3977C151.237 45.7281 150.664 46.0365 150.018 46.3228C149.372 46.6092 148.645 46.8515 147.845 47.0424C147.044 47.2333 146.185 47.3287 145.26 47.3287C143.652 47.3287 142.176 47.0497 140.84 46.4991C139.496 45.941 138.351 45.1921 137.396 44.2376C136.442 43.2831 135.7 42.1744 135.172 40.9189C134.643 39.656 134.379 38.3197 134.379 36.8953C134.379 35.4709 134.643 34.1273 135.164 32.8644C135.686 31.6015 136.427 30.4928 137.389 29.5457C138.351 28.5985 139.496 27.8496 140.833 27.2916C142.169 26.7409 143.652 26.4619 145.282 26.4619C146.67 26.4619 147.925 26.6308 149.063 26.9612C150.201 27.2916 151.171 27.7615 151.993 28.3709C152.815 28.9803 153.439 29.7219 153.895 30.5956C154.342 31.4694 154.57 32.4385 154.57 33.5105C154.57 34.3329 154.46 35.1185 154.232 35.8601C154.005 36.6016 153.616 37.2551 153.065 37.8131C152.514 38.3785 151.765 38.8263 150.818 39.1641C149.878 39.5018 148.689 39.6707 147.257 39.6707H141.736ZM145.48 31.9613C144.695 31.9613 143.953 32.1669 143.263 32.5781C142.573 32.9892 142.022 33.5546 141.626 34.2815H146.193C146.714 34.2815 147.154 34.1934 147.514 34.0318C147.867 33.863 148.05 33.6207 148.05 33.2903C148.05 33.1434 147.999 32.9892 147.903 32.835C147.801 32.6808 147.646 32.534 147.433 32.4018C147.22 32.2697 146.956 32.1669 146.626 32.0861C146.295 32.0054 145.921 31.9613 145.488 31.9613H145.48Z" fill="#056DAC"/>
<path d="M190.937 46.6459H184.049V36.3373C184.049 34.9422 183.851 33.907 183.447 33.2315C183.044 32.556 182.405 32.2182 181.524 32.2182C180.422 32.2182 179.571 32.5854 178.969 33.3196C178.367 34.0538 178.051 35.0597 178.021 36.3299V46.6385H171.12V36.3299C171.12 34.9349 170.921 33.8996 170.532 33.2241C170.136 32.5486 169.49 32.2109 168.594 32.2109C167.471 32.2109 166.604 32.6 166.002 33.371C165.4 34.1419 165.092 35.2212 165.092 36.6089V46.6385H158.241V27.13H163.726L164.064 28.2167C164.791 27.7541 165.62 27.3503 166.567 26.9979C167.515 26.6454 168.55 26.4766 169.673 26.4766C170.907 26.4766 172.015 26.6748 173.007 27.0786C173.998 27.4825 174.842 28.0331 175.547 28.7453C175.944 28.4443 176.384 28.158 176.869 27.8863C177.346 27.6146 177.875 27.3723 178.44 27.1667C179.005 26.9612 179.615 26.7923 180.261 26.6675C180.907 26.5426 181.604 26.4766 182.353 26.4766C183.778 26.4766 185.019 26.7042 186.098 27.1594C187.17 27.6146 188.066 28.2607 188.771 29.1051C189.483 29.9495 190.019 30.97 190.379 32.1668C190.738 33.3636 190.922 34.7073 190.922 36.1904V46.6459H190.937Z" fill="#056DAC"/>
<path d="M0 75.2586H3.53899C4.34664 75.2586 4.99276 75.0236 5.47736 74.5537C5.9546 74.0838 6.1969 73.401 6.1969 72.5052L6.21159 55.7061H13.2088V72.5273C13.2088 73.9517 12.9592 75.1925 12.4672 76.2718C11.9753 77.3438 11.2925 78.2396 10.4187 78.9665C9.54499 79.6933 8.51707 80.2367 7.3423 80.6038C6.16019 80.9709 4.88997 81.1545 3.51696 81.1545H0V75.2586Z" fill="#056DAC"/>
<path d="M17.0195 71.4041C17.0195 69.9797 17.2838 68.636 17.8051 67.3731C18.3264 66.1103 19.068 65.0016 20.0298 64.0618C20.9917 63.122 22.1444 62.373 23.4881 61.815C24.8317 61.257 26.3222 60.9854 27.9595 60.9854C29.5968 60.9854 31.1094 61.257 32.4677 61.8077C33.826 62.3584 34.9861 63.1073 35.9479 64.0544C36.9098 65.0016 37.6514 66.1103 38.18 67.3731C38.7086 68.636 38.973 69.9797 38.973 71.4041C38.973 72.8285 38.7086 74.1868 38.18 75.457C37.6514 76.7199 36.9024 77.8286 35.9333 78.7684C34.9641 79.7082 33.804 80.4498 32.4457 80.9931C31.0873 81.5364 29.5748 81.8081 27.9155 81.8081C26.2561 81.8081 24.8097 81.5364 23.4734 80.9858C22.1371 80.4351 20.9843 79.6935 20.0298 78.7537C19.0753 77.8139 18.3338 76.7052 17.8051 75.4423C17.2765 74.1795 17.0121 72.8358 17.0121 71.4114L17.0195 71.4041ZM23.8919 71.3894C23.8919 72.1163 24.002 72.7624 24.2223 73.3424C24.4426 73.9225 24.7362 74.4144 25.1107 74.8182C25.4852 75.2221 25.9184 75.5378 26.4176 75.7507C26.9169 75.971 27.4529 76.0738 28.0256 76.0738C28.5983 76.0738 29.1416 75.9636 29.6409 75.7507C30.1402 75.5378 30.5807 75.2221 30.9405 74.8182C31.3003 74.4144 31.5866 73.9225 31.7995 73.3424C32.0125 72.7624 32.1153 72.1089 32.1153 71.3894C32.1153 70.6698 32.0051 70.0384 31.7995 69.4657C31.5866 68.893 31.2929 68.4011 30.9185 67.9972C30.544 67.5934 30.1035 67.2777 29.6115 67.0648C29.1123 66.8445 28.5763 66.7344 28.0036 66.7344C27.4309 66.7344 26.8729 66.8445 26.3736 67.0648C25.8743 67.285 25.4411 67.5934 25.074 67.9899C24.7069 68.3864 24.4132 68.8783 24.2003 69.4584C23.9873 70.0384 23.8845 70.6845 23.8845 71.3967L23.8919 71.3894Z" fill="#056DAC"/>
<path d="M56.9248 67.4391L54.3477 67.4538C52.9013 67.4685 51.7999 67.865 51.0363 68.6579C50.2727 69.4509 49.8983 70.6477 49.8983 72.2557V81.1399H43.0332V61.6314H48.5326L48.9805 63.1439C49.5825 62.718 50.28 62.3583 51.095 62.0646C51.9027 61.7709 52.8572 61.624 53.9585 61.624H56.9322V67.4244L56.9248 67.4391Z" fill="#056DAC"/>
<path d="M81.1104 81.1546H74.2233V70.8827C74.2233 70.0751 74.1425 69.3996 73.9884 68.8709C73.8342 68.3423 73.6213 67.9164 73.3496 67.6007C73.0779 67.285 72.7695 67.0574 72.4024 66.9252C72.0427 66.7931 71.6609 66.727 71.2644 66.727C70.6182 66.727 70.0456 66.8518 69.5536 67.0941C69.0617 67.3364 68.6505 67.6742 68.3201 68.1073C67.9897 68.5405 67.7401 69.0472 67.5712 69.6345C67.4023 70.2219 67.3216 70.8534 67.3216 71.5435V81.162H60.4712V61.6535H65.9559L66.3083 62.8135C66.7048 62.5786 67.1453 62.3436 67.6152 62.1234C68.0852 61.9031 68.5844 61.7049 69.091 61.5433C69.5977 61.3818 70.1263 61.2496 70.6623 61.1468C71.1983 61.0441 71.7343 61 72.2703 61C73.8415 61 75.1852 61.2276 76.3012 61.6902C77.4172 62.1527 78.3277 62.8062 79.0399 63.6579C79.7521 64.5096 80.2734 65.5302 80.6038 66.727C80.9342 67.9238 81.0957 69.2674 81.0957 70.7506V81.1693L81.1104 81.1546Z" fill="#056DAC"/>
<path d="M98.306 79.6569C97.8215 79.9799 97.2928 80.2736 96.7348 80.5379C96.1768 80.8023 95.5967 81.0152 94.9947 81.1914C94.3926 81.3676 93.7905 81.4998 93.1811 81.5805C92.5717 81.6613 91.9623 81.7054 91.3676 81.6907C90.4424 81.676 89.5687 81.5365 88.7317 81.2575C87.8947 80.9858 87.1604 80.56 86.5217 79.9946C85.8829 79.4292 85.3836 78.7024 85.0091 77.8213C84.6347 76.9402 84.4438 75.8829 84.4438 74.6347C84.4438 73.5481 84.6934 72.645 85.1854 71.9107C85.6773 71.1838 86.3748 70.5965 87.2706 70.1486C88.1663 69.708 89.2383 69.3923 90.4792 69.2161C91.72 69.0399 93.0857 68.9444 94.5835 68.9444C95.0608 68.9444 95.516 68.9444 95.9565 68.9665C96.397 68.9885 96.867 68.9812 97.3662 68.9812V68.0634C97.3515 67.799 97.2708 67.5641 97.1239 67.3585C96.9771 67.1529 96.7715 66.9767 96.5219 66.8372C96.2722 66.6977 95.9859 66.5876 95.6555 66.5068C95.3251 66.4334 94.9726 66.3967 94.5982 66.3967C94.2237 66.3967 93.8933 66.4334 93.5776 66.5068C93.2619 66.5802 92.9829 66.683 92.7553 66.8152C92.5203 66.9473 92.3441 67.0942 92.2119 67.2631C92.0798 67.4319 92.0137 67.6008 92.0137 67.777L85.0899 67.799C85.1413 66.6243 85.3909 65.611 85.8462 64.7593C86.3014 63.9076 86.9328 63.1954 87.7331 62.6374C88.5408 62.0721 89.5026 61.6609 90.6333 61.3819C91.7641 61.1102 93.0196 60.9707 94.3999 60.9707C95.7803 60.9707 97.1533 61.1102 98.3648 61.3819C99.5763 61.6609 100.612 62.072 101.478 62.6227C102.344 63.1807 103.02 63.8709 103.504 64.7079C103.989 65.545 104.231 66.5215 104.231 67.6449V81.1327H98.7099L98.2767 79.6348L98.306 79.6569ZM93.9814 76.4776C94.3339 76.4776 94.679 76.4409 95.0167 76.3675C95.3544 76.2941 95.6775 76.1913 95.9785 76.0665C96.2796 75.9417 96.5439 75.7948 96.7862 75.6186C97.0211 75.4424 97.212 75.2515 97.3442 75.0386V73.5407C97.1313 73.526 96.889 73.5187 96.6173 73.5187H95.516C94.9066 73.5187 94.3485 73.5407 93.864 73.5848C93.372 73.6288 92.9462 73.7022 92.6011 73.8124C92.256 73.9225 91.9843 74.062 91.7934 74.2529C91.6099 74.4438 91.5144 74.6788 91.5144 74.9651C91.5144 75.2515 91.5805 75.4864 91.7127 75.6773C91.8448 75.8682 92.021 76.0224 92.2486 76.1472C92.4763 76.2721 92.7332 76.3602 93.0343 76.4116C93.3353 76.463 93.651 76.485 93.9888 76.485L93.9814 76.4776Z" fill="#056DAC"/>
<path d="M115.869 54.7959V73.6509C115.869 74.0621 115.891 74.3925 115.942 74.6421C115.994 74.8918 116.067 75.0827 116.177 75.2148C116.28 75.347 116.419 75.4278 116.588 75.4645C116.757 75.5012 116.963 75.5232 117.212 75.5232H118.226V81.1915H116.919C115.325 81.1915 114.019 81.074 112.998 80.8464C111.985 80.6188 111.177 80.2149 110.582 79.6422C109.988 79.0695 109.584 78.3059 109.356 77.3514C109.129 76.3969 109.018 75.2001 109.018 73.7537V54.8032H115.861L115.869 54.7959Z" fill="#056DAC"/>
<path d="M121.354 56.5724C121.354 56.1098 121.449 55.6693 121.633 55.2508C121.823 54.8323 122.088 54.4652 122.44 54.1568C122.793 53.8484 123.211 53.5988 123.703 53.4152C124.195 53.2317 124.738 53.1436 125.34 53.1436C125.942 53.1436 126.5 53.2317 126.992 53.4152C127.484 53.5988 127.91 53.8411 128.255 54.1568C128.608 54.4725 128.872 54.8323 129.056 55.2508C129.246 55.6693 129.335 56.1098 129.335 56.5724C129.335 57.035 129.239 57.4902 129.056 57.9087C128.872 58.3272 128.6 58.6943 128.255 59.0027C127.903 59.3184 127.484 59.5607 126.985 59.7296C126.486 59.9058 125.928 59.9939 125.318 59.9939C124.709 59.9939 124.18 59.9058 123.688 59.7223C123.204 59.5387 122.785 59.2964 122.448 58.9807C122.102 58.665 121.838 58.3052 121.647 57.894C121.456 57.4828 121.361 57.0423 121.361 56.5651L121.354 56.5724ZM121.838 61.6386H128.74V81.1471H121.838V61.6386Z" fill="#056DAC"/>
<path d="M134.819 74.341C135.539 74.7521 136.2 75.0899 136.802 75.3542C137.404 75.6185 137.947 75.8241 138.446 75.971C138.946 76.1178 139.408 76.2279 139.834 76.2867C140.26 76.3528 140.656 76.3821 141.031 76.3821C141.802 76.3821 142.397 76.2867 142.808 76.0958C143.219 75.9049 143.425 75.6332 143.425 75.2808C143.425 75.0458 143.344 74.8549 143.182 74.7154C143.021 74.5759 142.764 74.4511 142.419 74.341C142.066 74.2308 141.611 74.1134 141.053 73.9959C140.488 73.8784 139.812 73.7169 139.012 73.5186C138.674 73.4452 138.3 73.3498 137.888 73.2396C137.477 73.1295 137.059 72.9753 136.648 72.7844C136.229 72.5935 135.825 72.3512 135.429 72.0722C135.032 71.7932 134.687 71.4408 134.379 71.0223C134.07 70.6037 133.828 70.1118 133.652 69.5465C133.468 68.9811 133.38 68.313 133.38 67.5567C133.38 65.4274 134.115 63.7974 135.59 62.6741C137.059 61.5507 139.151 60.9927 141.853 60.9927C142.624 60.9927 143.373 61.022 144.1 61.0881C144.827 61.1542 145.532 61.2497 146.229 61.3745C146.927 61.5066 147.617 61.6829 148.292 61.9105C148.975 62.1381 149.658 62.4024 150.356 62.7181L148.638 67.9165C147.536 67.5053 146.428 67.1529 145.297 66.8592C144.166 66.5655 143.072 66.4186 142.015 66.4186C141.427 66.4186 141.009 66.5214 140.752 66.7344C140.495 66.9473 140.37 67.1969 140.37 67.4833C140.37 67.6595 140.422 67.8063 140.517 67.9312C140.62 68.056 140.781 68.1661 141.024 68.2616C141.259 68.357 141.567 68.4451 141.941 68.5259C142.316 68.6066 142.786 68.6874 143.344 68.7755C144.438 68.9738 145.458 69.2014 146.391 69.451C147.323 69.7006 148.138 70.0457 148.821 70.4789C149.511 70.9195 150.047 71.4775 150.429 72.175C150.818 72.8652 151.009 73.7463 151.009 74.8182C151.009 75.8902 150.767 76.9328 150.29 77.7992C149.812 78.6656 149.152 79.3998 148.315 79.9946C147.477 80.5966 146.501 81.0445 145.378 81.3602C144.254 81.6686 143.057 81.8301 141.787 81.8301C140.928 81.8301 140.135 81.8081 139.401 81.7567C138.674 81.7053 137.962 81.6099 137.272 81.4777C136.582 81.3455 135.884 81.1473 135.179 80.8903C134.474 80.6333 133.725 80.3103 132.925 79.9064L134.812 74.3483L134.819 74.341Z" fill="#056DAC"/>
<path d="M157.867 56.3668L162.771 56.3301V61.6459H167.933V67.3509H162.749V73.3716C162.749 73.8561 162.801 74.26 162.911 74.5684C163.014 74.8841 163.168 75.1264 163.366 75.3099C163.564 75.4935 163.799 75.6183 164.071 75.6844C164.343 75.7505 164.636 75.7872 164.959 75.7872H168.161L168.102 81.2278H164.306C163.542 81.2278 162.808 81.1911 162.096 81.125C161.384 81.0589 160.716 80.9194 160.092 80.7212C159.467 80.523 158.902 80.2439 158.388 79.8768C157.874 79.5171 157.434 79.0472 157.066 78.4745C156.699 77.9018 156.413 77.2042 156.207 76.3819C156.002 75.5596 155.899 74.5757 155.899 73.445V67.3435H152.94V62.292L155.73 60.9484L157.859 56.3668H157.867Z" fill="#056DAC"/>
<path d="M184.842 79.6569C184.358 79.9799 183.829 80.2736 183.271 80.5379C182.713 80.8023 182.133 81.0152 181.531 81.1914C180.929 81.3676 180.327 81.4998 179.717 81.5805C179.108 81.6613 178.499 81.7054 177.904 81.6907C176.979 81.676 176.105 81.5365 175.268 81.2575C174.431 80.9858 173.697 80.56 173.058 79.9946C172.419 79.4292 171.92 78.7024 171.545 77.8213C171.171 76.9402 170.98 75.8829 170.98 74.6347C170.98 73.5481 171.23 72.645 171.722 71.9107C172.214 71.1838 172.911 70.5965 173.807 70.1486C174.703 69.708 175.775 69.3923 177.015 69.2161C178.256 69.0399 179.622 68.9444 181.12 68.9444C181.597 68.9444 182.052 68.9444 182.493 68.9665C182.933 68.9885 183.403 68.9812 183.903 68.9812V68.0634C183.888 67.799 183.807 67.5641 183.66 67.3585C183.513 67.1529 183.308 66.9767 183.058 66.8372C182.809 66.6977 182.522 66.5876 182.192 66.5068C181.861 66.4334 181.509 66.3967 181.135 66.3967C180.76 66.3967 180.43 66.4334 180.114 66.5068C179.798 66.5802 179.519 66.683 179.292 66.8152C179.057 66.9473 178.88 67.0942 178.748 67.2631C178.616 67.4319 178.55 67.6008 178.55 67.777L171.626 67.799C171.678 66.6243 171.927 65.611 172.382 64.7593C172.838 63.9076 173.469 63.1954 174.269 62.6374C175.077 62.0721 176.039 61.6609 177.17 61.3819C178.3 61.1102 179.556 60.9707 180.936 60.9707C182.317 60.9707 183.69 61.1102 184.901 61.3819C186.113 61.6609 187.148 62.072 188.014 62.6227C188.881 63.1807 189.556 63.8709 190.041 64.7079C190.525 65.545 190.768 66.5215 190.768 67.6449V81.1327H185.246L184.813 79.6348L184.842 79.6569ZM180.525 76.4776C180.878 76.4776 181.223 76.4409 181.56 76.3675C181.898 76.2941 182.221 76.1913 182.522 76.0665C182.823 75.9417 183.088 75.7948 183.33 75.6186C183.565 75.4424 183.756 75.2515 183.888 75.0386V73.5407C183.675 73.526 183.433 73.5187 183.161 73.5187H182.06C181.45 73.5187 180.892 73.5407 180.408 73.5848C179.916 73.6288 179.49 73.7022 179.145 73.8124C178.8 73.9225 178.528 74.062 178.337 74.2529C178.154 74.4438 178.058 74.6788 178.058 74.9651C178.058 75.2515 178.124 75.4864 178.256 75.6773C178.388 75.8682 178.565 76.0224 178.792 76.1472C179.02 76.2721 179.277 76.3602 179.578 76.4116C179.879 76.463 180.195 76.485 180.532 76.485L180.525 76.4776Z" fill="#056DAC"/>
<path d="M300.249 61.6314C299.39 59.3113 299.206 56.8736 298.986 54.4433C298.854 53.0116 298.655 51.1466 297.26 50.3537C296.695 50.0306 295.961 49.9719 295.395 50.2802C294.999 50.5005 294.705 50.8823 294.514 51.2935C294.162 52.0424 294.111 53.2612 292.965 53.2245C292.561 53.2098 292.165 52.9455 291.776 53.0483C291.137 53.2172 290.931 54.1937 290.439 54.5902C289.69 55.1922 288.721 55.3244 287.781 55.273C287.488 55.2583 287.194 55.2657 286.893 55.2583L286.9 55.1922C283.883 54.6563 281.518 52.2186 281.078 49.1862C281.005 48.6576 280.938 48.1216 280.894 47.5856C280.799 46.4329 280.476 45.2948 279.896 44.2889C279.338 43.3271 278.457 42.5708 277.899 41.587C277.392 40.6985 277.076 39.6559 277.216 38.6427C277.377 37.4386 278.148 36.4033 279.007 35.5443C279.683 34.8761 280.483 34.1859 280.557 33.2461C280.667 31.9318 279.301 30.9113 279.14 29.597C279.022 28.6205 279.683 27.6072 280.623 27.3282C281.276 27.13 282.04 27.2475 282.583 26.8363C283.361 26.2489 283.009 25.3678 283.207 24.5822C283.413 23.7892 284.228 23.055 284.969 22.776C286.658 22.1299 287.363 23.5249 288.413 24.4941C289.558 25.5514 291.012 25.2136 291.599 23.8259C291.864 23.2018 292.077 22.541 292.613 22.0932C292.833 21.9023 293.039 21.6673 293.244 21.447C290.535 17.9962 287.414 14.883 283.956 12.1811C284.118 12.651 284.433 13.0548 284.867 13.3999C285.439 13.8624 285.425 14.347 285.615 14.9858C286.019 16.3515 287.245 17.027 287.759 18.2531C287.848 18.4587 287.892 18.6937 287.833 18.9139C287.774 19.1342 287.598 19.3251 287.37 19.3545C286.952 19.4059 286.607 18.8993 286.188 18.9727C286.394 19.1709 286.394 19.516 286.225 19.7436C285.439 20.7642 284.213 19.1709 283.545 18.7891C282.642 18.2825 281.445 18.2825 280.586 18.8772C279.448 19.6629 279.073 21.381 279.786 22.5704C280.05 23.0109 280.432 23.3707 280.645 23.8333C280.799 24.1784 280.872 24.7364 280.593 25.0374C280.336 25.3164 279.888 25.199 279.595 25.4412C279.25 25.7203 279.33 26.2709 279.103 26.6454C278.993 26.8216 278.824 26.9391 278.626 27.0052C278.369 27.0859 278.075 27.0786 277.825 26.9758C277.377 26.7996 277.054 26.4104 276.805 26.0066C276.548 25.6028 276.342 25.1622 276.041 24.7951C275.711 24.3913 275.27 24.0903 274.888 23.7378C274.499 23.3854 274.154 22.9522 274.073 22.4382C273.927 21.447 274.83 21.1093 275.63 21.0432C276.004 21.0138 276.408 20.9478 276.673 20.6834C277.495 19.8538 275.968 19.1489 275.402 18.9947C274.808 18.8258 274.213 18.657 273.618 18.4881C273.346 18.4147 273.053 18.3192 272.899 18.0769C272.693 17.7539 272.847 17.3207 273.097 17.027C273.339 16.7333 273.67 16.5057 273.86 16.1826C274.139 15.72 273.963 14.8316 273.31 15.2355C273.067 15.3896 272.913 15.654 272.752 15.8889C272.59 16.1239 272.377 16.3662 272.091 16.4102C271.724 16.469 271.386 16.19 271.195 15.8742C271.004 15.5585 270.909 15.1914 270.711 14.8757C270.417 14.4131 269.492 14.0827 269.257 14.8023C269.161 15.0813 269.301 15.3823 269.411 15.654C269.521 15.9256 269.587 16.2707 269.396 16.491C269.205 16.7113 268.824 16.6819 268.589 16.4983C268.354 16.3148 268.229 16.0358 268.111 15.7641C267.619 14.6114 267.201 13.4292 266.753 12.2545C266.65 11.9902 266.548 11.6891 266.658 11.4248C266.782 11.1238 267.142 10.9843 267.465 11.0136C267.788 11.043 268.075 11.2119 268.354 11.3734C269.499 12.0342 270.645 12.695 271.797 13.3558C272.319 13.6569 272.965 13.9652 273.493 13.6715C273.831 13.488 274.007 13.1135 274.154 12.7684C274.551 11.8433 275.204 10.6392 275.3 9.62594C275.388 8.64207 274.455 8.76689 273.721 8.62738C273.207 8.53193 272.862 8.09139 272.59 7.67288C272.275 7.18829 272.091 6.63028 271.871 6.09429C271.768 5.83731 271.636 5.57299 271.393 5.44082C270.689 5.07371 270.6 6.3733 270.079 6.53483C269.675 6.65965 269.227 6.53483 268.882 6.29253C268.537 6.05024 268.28 5.69781 268.053 5.34538C267.957 5.19853 267.854 5.04434 267.708 4.94889C267.561 4.85344 267.34 4.83876 267.216 4.97092C266.445 5.77857 269.484 7.04879 269.94 7.23969C270.99 7.68023 272.106 8.16482 272.715 9.11932C272.891 9.39832 273.023 9.72139 272.979 10.0518C272.935 10.3749 272.671 10.6906 272.341 10.6979C272.032 10.7053 271.768 10.463 271.606 10.1986C271.445 9.93431 271.349 9.63328 271.151 9.38364C270.953 9.134 270.622 8.96513 270.336 9.08995C270.101 9.19274 269.991 9.45706 269.859 9.67733C269.573 10.1546 269.059 10.1399 268.589 9.97102C267.744 9.66999 266.797 8.24558 266.9 7.34982C266.944 6.96068 266.768 6.82852 266.518 6.65965C265.578 6.04289 264.631 5.4188 263.699 4.7947C263.317 4.53772 262.957 4.25871 262.766 3.81818C262.428 3.03989 262.715 2.61404 263.559 2.65809C263.743 2.66544 263.941 2.73886 264.117 2.70949C264.301 2.68012 264.536 2.64341 264.668 2.52593C260.226 1.34382 255.563 0.719727 250.754 0.719727C241.804 0.719727 233.368 2.89305 225.93 6.74775C226.15 7.52604 226.356 8.26761 226.437 8.40711C226.598 8.69346 226.928 8.90639 227.244 8.81828C227.442 8.75954 227.597 8.59801 227.721 8.42914C228.199 7.77568 228.551 6.48343 229.469 6.34393C229.968 6.26316 230.504 6.54951 230.717 7.00473C230.849 7.28374 230.864 7.6068 230.959 7.9005C231.055 8.19419 231.282 8.48788 231.591 8.50256C231.921 8.51725 232.171 8.20887 232.406 7.97392C232.641 7.73896 233.067 7.56275 233.287 7.81973C233.478 8.04 233.338 8.38509 233.419 8.66409C233.559 9.14134 234.256 9.19274 234.675 8.92107C235.086 8.64941 235.335 8.18684 235.71 7.85644C236.084 7.52604 236.716 7.36451 237.039 7.73896C237.325 8.06937 237.237 8.66409 237.612 8.88436C237.92 9.07526 238.39 8.87702 238.654 9.11932C238.83 9.28085 238.823 9.55251 238.808 9.79481C238.808 10.6685 238.691 11.5643 238.632 12.4307C238.61 12.7024 238.566 13.0181 238.324 13.1502C238.103 13.2677 237.81 13.1502 237.663 12.9447C237.516 12.7391 237.479 12.4747 237.472 12.2251C237.45 11.6965 237.45 11.0503 237.23 10.5584C236.943 9.90494 236.158 9.5158 235.46 9.68467C233.779 10.0885 234.418 12.6216 232.934 13.3338C232.31 13.6348 231.569 13.4219 230.879 13.4219C229.542 13.4219 228.448 14.325 227.707 15.3603C226.98 16.3882 226.826 17.9374 227.699 18.8479C228.265 19.4352 229.124 19.6335 229.748 20.1548C230.416 20.7055 230.717 21.5792 230.644 22.4309C230.622 22.7319 230.379 23.2459 230.842 23.3634C231.128 23.4368 231.393 23.0623 231.481 22.8421C231.76 22.1152 231.76 21.1387 232.215 20.5072C232.494 20.1181 232.876 19.817 233.221 19.494C234.087 18.6716 233.882 18.0549 234.08 16.9756C234.278 15.933 235.247 15.0886 236.312 15.0446C236.848 15.0225 237.465 15.2061 237.876 15.5659C238.192 15.8375 238.25 16.2267 238.544 16.513C238.764 16.7333 239.153 16.8067 239.381 16.6011C239.557 16.4396 239.587 16.1606 239.763 15.9991C239.968 15.8082 240.313 15.8449 240.548 15.9991C240.783 16.1532 240.938 16.4029 241.106 16.6305C241.731 17.4895 242.575 18.1797 243.537 18.6276C244.484 19.0681 245.541 19.494 245.321 20.7348C245.24 21.1974 245.079 21.6747 245.233 22.1152C245.49 22.8568 246.474 23.0697 246.914 23.7232C247.245 24.2224 247.179 25.1035 246.621 25.4339C246.04 25.779 245.218 25.3017 244.719 25.0007C243.852 24.4721 243.008 23.8847 242.061 23.5102C241.554 23.3046 238.603 22.5557 239.124 23.9875C239.234 24.2885 239.513 24.4941 239.778 24.6776C240.321 25.0594 240.864 25.4412 241.407 25.823C242.641 26.6894 239.66 28.4516 239.065 28.804C238.852 28.9288 238.61 29.061 238.368 29.0023C238.037 28.9288 238.001 28.4516 237.751 28.3708C237.399 28.2607 237.002 28.76 236.745 28.9949C236.07 29.6117 235.475 30.3165 234.748 30.8745C233.661 31.7189 232.487 32.4531 231.304 33.158C230.864 33.4223 230.688 33.7013 230.893 34.2006C231.062 34.6265 231.128 35.089 231.297 35.5075C231.606 36.2491 231.282 36.7043 230.666 37.0201C230.262 37.2256 229.821 37.3725 229.395 37.5267C228.081 37.9672 227.053 39.0979 226.569 40.3755C225.952 42.0055 226.378 43.2537 226.943 44.8176C226.987 44.9351 227.031 45.0599 227.009 45.1847C226.973 45.4196 226.73 45.5665 226.503 45.6032C225.739 45.7354 225.064 45.0452 224.762 44.3256C224.469 43.6061 224.381 42.7984 223.977 42.1303C223.463 41.2933 222.486 40.816 221.51 40.7059C219.52 40.4783 216.994 41.3373 215.673 42.8719C213.83 45.0158 213.712 48.4447 215.394 50.7134C215.577 50.9557 215.798 51.2054 216.099 51.2641C216.598 51.3669 217.024 50.9264 217.361 50.5446C217.846 50.0012 218.221 50.0526 218.83 49.8691C219.3 49.7296 219.755 49.2083 220.276 49.3037C220.585 49.3625 220.82 49.6341 220.915 49.9352C221.003 50.2362 220.974 50.5593 220.922 50.875C220.805 51.5725 220.585 52.248 220.269 52.8794C220.137 53.1511 219.983 53.4154 219.902 53.7091C219.821 54.0028 219.828 54.3332 219.997 54.5828C220.636 55.53 222.281 54.5681 223.066 55.4859C223.389 55.8677 223.507 56.3817 223.536 56.881C223.573 57.3802 223.536 57.8869 223.602 58.3788C223.742 59.3774 224.351 60.3025 225.21 60.8311C225.585 61.0587 226.011 61.2276 226.275 61.58C226.576 61.9839 226.532 62.2702 226.334 62.4538C226.047 62.7181 225.431 62.7622 225.012 62.6006C223.984 62.2041 223.096 61.4552 222.523 60.5154C222.024 59.7004 221.723 58.7019 220.945 58.1585C220.379 57.762 219.667 57.6739 219.028 57.4096C217.773 56.881 218.074 55.6034 217.193 54.759C216.414 54.0028 215.166 54.201 214.087 54.1129C211.774 53.922 210.049 52.1892 209.278 50.082C208.932 49.1422 209.079 48.1069 209.189 47.1377C209.322 45.963 209.072 45.1259 208.382 44.1788C208.015 43.6795 207.809 43.0554 207.442 42.5782C206.811 41.7485 206.811 44.355 206.231 43.5547C206.128 43.4079 206.106 43.217 206.084 43.0407C205.533 37.2991 205.665 30.9333 208.771 25.8671C211.098 22.0711 213.345 18.2238 215.68 14.4351C215.952 13.9946 216.165 13.5614 216.304 13.1209C204.322 23.033 196.686 38.0186 196.686 54.7884C196.686 65.5743 199.857 75.6185 205.305 84.0548L197.464 105.538C197.405 105.693 197.552 105.854 197.713 105.81L220.695 99.7306H220.688C229.278 105.48 239.616 108.842 250.74 108.842C271.856 108.842 290.146 96.7276 299.045 79.0694C298.839 76.294 299.463 73.6288 300.036 70.9488C300.359 69.429 300.675 67.9018 300.909 66.3672C301.166 64.7372 300.851 63.1513 300.285 61.6241L300.249 61.6314ZM245.563 12.974C245.409 12.4013 244.917 12.1443 244.484 11.836C243.735 11.3 243.772 10.8962 244.579 10.4997C244.946 10.3161 245.46 10.2427 245.225 9.61125C245.005 9.03121 244.851 8.31901 244.021 8.49522C243.309 8.64207 243.17 8.23824 243.074 7.73162C242.81 6.2705 242.81 6.2705 241.334 6.68167C240.967 6.78447 240.592 6.90929 240.291 6.54951C240.079 6.28519 240.137 5.99884 240.255 5.71249C240.321 5.5583 240.372 5.38943 240.57 5.39677C241.341 5.41146 241.694 4.85344 242.076 4.33214C242.435 3.84755 242.891 3.57588 243.522 3.61993C243.757 3.63462 244.102 3.66399 244.22 3.53183C245.079 2.49656 246.246 2.90773 247.068 2.83431C247.898 2.83431 248.485 2.83431 249.08 2.83431C249.565 2.83431 249.925 2.9885 249.954 3.55385C249.983 4.15592 250.38 4.37619 250.916 4.43493C251.701 4.52304 252.201 4.85344 252.223 5.7492C252.237 6.33659 252.671 6.7037 253.199 6.93131C253.904 7.23235 254.007 7.67288 253.522 8.28229C253.324 8.53193 253.052 8.64207 252.781 8.7522C252.333 8.93576 252.193 9.22211 252.281 9.7067C252.509 10.9769 252.348 11.1825 251.129 11.3514C249.829 11.5276 249.411 12.0783 249.609 13.3779C249.69 13.9065 249.822 14.4278 249.903 14.9638C249.939 15.2208 250.013 15.5512 249.712 15.6833C249.411 15.8228 249.066 15.6833 248.926 15.4337C248.618 14.861 248.096 14.7729 247.546 14.6628C246.598 14.4719 245.85 14.0093 245.578 12.9887L245.563 12.974ZM232.134 51.8295C232.912 51.4991 233.412 50.9117 233.617 50.0159C233.794 49.2597 234.344 49.223 234.814 49.1128C235.504 49.2523 236.099 49.4506 236.547 50.0012C236.789 50.2949 236.958 50.7281 237.34 50.7869C238.404 50.9557 238.551 51.7781 238.294 52.6812C238.023 53.6577 237.259 54.2745 236.407 53.878C235.497 53.4595 234.88 53.8266 234.183 54.3038C233.544 54.737 232.876 54.9646 232.149 54.5461C231.62 54.2451 231.356 53.7678 231.334 53.0924C231.312 52.4242 231.65 52.0351 232.134 51.8295ZM225.489 49.7002C225.254 49.7075 224.983 49.6782 224.829 49.4726C224.528 49.0835 224.16 49.0981 223.742 49.1936C223.404 49.2743 223.066 49.2303 222.92 48.8852C222.736 48.4594 223.132 48.3345 223.382 48.1657C223.867 47.8353 224.425 47.7765 224.997 47.7985C225.761 47.7912 226.481 48.0188 227.171 48.3052C228.213 48.7384 229.249 49.1348 230.379 49.2964C231.216 49.4139 231.664 49.9572 231.547 50.5592C231.422 51.1833 230.754 51.5211 229.939 51.3742C229.506 51.2935 229.146 51.0512 228.786 50.8236C227.773 50.1921 226.738 49.6635 225.497 49.7075L225.489 49.7002ZM269.793 77.0649C268.736 79.1134 268.2 81.3896 267.201 83.4674C265.6 86.8229 262.891 89.4661 260.013 91.7422C257.59 93.6512 255.218 95.6116 252.854 97.6014C250.975 99.1873 248.552 100.986 248.089 103.571C247.839 104.944 249.249 106.948 247.421 106.882C246.107 106.838 244.712 105.957 243.786 105.083C242.289 103.673 241.437 101.684 241.055 99.6572C240.629 97.4178 240.607 94.9875 240.754 92.7187C240.93 89.9874 239.983 87.8875 237.729 86.2208C235.431 84.5174 233.258 82.6378 231.092 80.7655C228.874 78.8491 226.995 76.6832 226.429 73.6802C226.062 71.7124 226.392 69.9136 227.611 68.2909C228.03 67.7329 228.456 67.1749 228.86 66.6022C229.557 65.6036 229.741 64.517 229.403 63.3349C229.094 62.2409 229.036 61.1395 229.366 60.0308C230.431 56.5212 234.014 57.2481 236.503 58.6211C237.553 59.2011 238.764 59.7371 239.924 59.4361C240.541 59.2746 241.099 58.8781 241.738 58.8414C242.766 58.7753 243.595 59.627 244.286 60.3906C246.165 62.4464 249.088 61.9031 251.533 62.887C253.214 63.5625 254.433 64.6785 255.123 66.3525C255.578 67.4686 256.07 68.658 257.392 68.8563C260.189 69.4143 262.854 69.8328 265.769 70.0384C266.687 70.1045 267.612 70.1705 268.486 70.4422C268.633 70.4863 268.78 70.5377 268.926 70.5964C269.925 71.0002 270.821 71.7858 271.085 72.8284C271.452 74.2969 270.505 75.7287 269.808 77.0723L269.793 77.0649Z" fill="#82B834"/>
<path d="M109.811 104.767V104.716C109.811 101.684 112.227 99.2093 115.34 97.3076C118.417 95.428 119.276 94.679 119.276 92.9316C119.276 91.052 118.13 89.7083 115.634 89.7083C113.306 89.7083 112.029 91.0373 111.647 93.262H109.966C110.252 90.3765 112.271 88.1958 115.649 88.1958C119.423 88.1958 121.052 90.4719 121.052 92.9096C121.052 95.6335 119.217 96.7863 116.456 98.4236C113.864 99.9582 112.183 101.669 111.794 103.262H121.919L121.633 104.775H109.797L109.811 104.767Z" fill="#82B834"/>
<path d="M144.548 96.4999C144.548 100.839 142.859 105.09 138.307 105.09C134.048 105.09 132.081 101.162 132.081 96.6615C132.081 92.1606 134.129 88.1958 138.351 88.1958C142.573 88.1958 144.548 92.0505 144.548 96.5073V96.4999ZM133.843 96.6541C133.843 99.6571 134.959 103.593 138.322 103.593C141.853 103.593 142.808 99.9361 142.808 96.5073C142.808 93.4896 141.736 89.6863 138.344 89.6863C135.128 89.6863 133.843 92.7187 133.843 96.6541Z" fill="#82B834"/>
<path d="M155.128 104.767V104.716C155.128 101.684 157.544 99.2093 160.657 97.3076C163.733 95.428 164.592 94.679 164.592 92.9316C164.592 91.052 163.447 89.7083 160.951 89.7083C158.623 89.7083 157.345 91.0373 156.964 93.262H155.282C155.569 90.3765 157.588 88.1958 160.965 88.1958C164.739 88.1958 166.369 90.4719 166.369 92.9096C166.369 95.6335 164.534 96.7863 161.773 98.4236C159.181 99.9582 157.5 101.669 157.111 103.262H167.236L166.949 104.775H155.113L155.128 104.767Z" fill="#82B834"/>
<path d="M188.771 90.0091H180.591C180.378 91.595 179.982 94.2603 179.784 95.3763C180.54 94.6641 181.693 93.9005 183.969 93.9005C187.493 93.9005 189.534 96.1399 189.534 99.3411C189.534 102.542 187.471 105.09 183.359 105.09C179.673 105.09 177.904 102.843 177.515 100.619H179.204C179.747 102.432 181.208 103.636 183.433 103.636C186.304 103.636 187.823 101.808 187.823 99.4366C187.823 97.5937 186.832 95.3396 183.726 95.3396C181.127 95.3396 179.974 96.5657 179.306 97.7699L177.889 97.4542C178.293 95.2368 179.013 90.4716 179.189 88.5112H188.976L188.778 90.0091H188.771Z" fill="#82B834"/>
<path d="M95.9565 90.4573C99.2752 90.4573 101.97 93.1593 101.97 96.4706C101.97 99.782 99.2679 102.484 95.9565 102.484H8.2968C4.97808 102.484 2.28346 99.782 2.28346 96.4706C2.28346 93.1593 4.98542 90.4573 8.2968 90.4573H95.9565ZM95.9565 88.1738H8.2968C3.7152 88.1738 0 91.889 0 96.4706C0 101.052 3.7152 104.767 8.2968 104.767H95.9565C100.538 104.767 104.253 101.052 104.253 96.4706C104.253 91.889 100.538 88.1738 95.9565 88.1738Z" fill="#EE9137"/>
<path d="M38.1286 99.5032C39.8034 99.5032 41.161 98.1456 41.161 96.4708C41.161 94.7961 39.8034 93.4385 38.1286 93.4385C36.4539 93.4385 35.0963 94.7961 35.0963 96.4708C35.0963 98.1456 36.4539 99.5032 38.1286 99.5032Z" fill="#EE9137"/>
<path d="M52.1303 99.5032C53.8051 99.5032 55.1627 98.1456 55.1627 96.4708C55.1627 94.7961 53.8051 93.4385 52.1303 93.4385C50.4556 93.4385 49.098 94.7961 49.098 96.4708C49.098 98.1456 50.4556 99.5032 52.1303 99.5032Z" fill="#EE9137"/>
<path d="M66.1248 99.5032C67.7995 99.5032 69.1571 98.1456 69.1571 96.4708C69.1571 94.7961 67.7995 93.4385 66.1248 93.4385C64.45 93.4385 63.0924 94.7961 63.0924 96.4708C63.0924 98.1456 64.45 99.5032 66.1248 99.5032Z" fill="#EE9137"/>
</svg>
