<svg width="158" height="56" viewBox="0 0 158 56" fill="none" xmlns="http://www.w3.org/2000/svg">
<path d="M28.5866 0.308594C24.4587 0.308594 21.1146 3.76693 21.1146 8.03581C21.1146 12.3047 24.4587 15.763 28.5866 15.763C32.7144 15.763 36.0586 12.3047 36.0586 8.03581C36.0586 3.77368 32.7144 0.308594 28.5866 0.308594ZM28.5866 14.635C25.0596 14.635 22.2054 11.6765 22.2054 8.03581C22.2054 4.3951 25.0661 1.4366 28.5866 1.4366C32.107 1.4366 34.9678 4.3951 34.9678 8.03581C34.9678 11.6765 32.107 14.635 28.5866 14.635Z" fill="black"/>
<path d="M34.9678 8.03524C34.9678 11.6827 32.107 14.6344 28.5865 14.6344C25.0661 14.6344 22.2054 11.6759 22.2054 8.03524C22.2054 4.39453 25.0661 1.43604 28.5865 1.43604C32.107 1.43604 34.9678 4.38778 34.9678 8.03524Z" fill="white"/>
<path d="M28.5866 20.0181C24.4587 20.0181 21.1146 23.4764 21.1146 27.7453C21.1146 32.0142 24.4587 35.4725 28.5866 35.4725C32.7144 35.4725 36.0586 32.0142 36.0586 27.7453C36.0586 23.4832 32.7144 20.0181 28.5866 20.0181ZM28.5866 34.3445C25.0596 34.3445 22.2054 31.386 22.2054 27.7453C22.2054 24.1046 25.0661 21.1461 28.5866 21.1461C32.107 21.1461 34.9678 24.1046 34.9678 27.7453C34.9678 31.386 32.107 34.3445 28.5866 34.3445Z" fill="black"/>
<path d="M34.9678 27.7452C34.9678 31.3927 32.107 34.3444 28.5865 34.3444C25.0661 34.3444 22.2054 31.3859 22.2054 27.7452C22.2054 24.1045 25.0661 21.146 28.5865 21.146C32.107 21.146 34.9678 24.0977 34.9678 27.7452Z" fill="#ECB31F"/>
<path d="M28.5866 39.7349C24.4587 39.7349 21.1146 43.1932 21.1146 47.4621C21.1146 51.731 24.4587 55.1893 28.5866 55.1893C32.7144 55.1893 36.0586 51.731 36.0586 47.4621C36.0586 43.1999 32.7144 39.7349 28.5866 39.7349ZM28.5866 54.0613C25.0596 54.0613 22.2054 51.1028 22.2054 47.4621C22.2054 43.8214 25.0661 40.8629 28.5866 40.8629C32.107 40.8629 34.9678 43.8214 34.9678 47.4621C34.9678 51.1028 32.107 54.0613 28.5866 54.0613Z" fill="black"/>
<path d="M34.9678 47.4552C34.9678 51.1026 32.107 54.0544 28.5865 54.0544C25.0661 54.0544 22.2054 51.0959 22.2054 47.4552C22.2054 43.8145 25.0661 40.856 28.5865 40.856C32.107 40.856 34.9678 43.8145 34.9678 47.4552Z" fill="white"/>
<path d="M56.4759 27.908L40.6632 44.2675L33.6419 37.0063L42.4398 27.908L33.3284 18.4854L40.3497 11.231L56.4759 27.908Z" fill="black"/>
<path d="M0.690796 27.5837L16.5034 11.231L23.5247 18.4854L14.7269 27.5837L23.8383 37.0063L16.817 44.2675L0.690796 27.5837Z" fill="black"/>
<path d="M60.8519 21.1533H64.81C65.7048 21.1533 66.3841 21.2209 66.8478 21.3627C67.4749 21.5518 68.0169 21.8963 68.4611 22.3826C68.9117 22.869 69.2513 23.4701 69.4865 24.1794C69.7216 24.8886 69.8392 25.7599 69.8392 26.8001C69.8392 27.712 69.7282 28.5023 69.5126 29.1575C69.2448 29.9613 68.8595 30.6165 68.3631 31.1163C67.9908 31.4945 67.4814 31.7917 66.8413 32.0011C66.3645 32.1565 65.7244 32.2375 64.9275 32.2375H60.8519V21.1533ZM63.0139 23.0243V30.3665H64.6271C65.2345 30.3665 65.6656 30.3328 65.9334 30.2585C66.2861 30.1707 66.5735 30.0153 66.8086 29.7992C67.0372 29.583 67.2266 29.225 67.3768 28.7319C67.5205 28.2389 67.599 27.5566 67.599 26.6988C67.599 25.841 67.5271 25.1858 67.3768 24.7265C67.2266 24.2672 67.0242 23.9092 66.7629 23.6525C66.5017 23.3958 66.1685 23.2202 65.7636 23.1324C65.4631 23.0649 64.8688 23.0243 63.9871 23.0243H63.0139Z" fill="black"/>
<path d="M71.668 32.2375V21.1533H79.6167V23.0311H73.8299V25.4897H79.2118V27.354H73.8299V30.3733H79.8193V32.2443H71.668V32.2375Z" fill="black"/>
<path d="M84.0713 32.2375V23.0243H80.8904V21.1465H89.4074V23.0243H86.2331V32.2375H84.0713Z" fill="black"/>
<path d="M90.8117 32.2375V21.1533H95.3641C96.5071 21.1533 97.3431 21.2546 97.8591 21.4505C98.3751 21.6464 98.7931 22.0044 99.1066 22.511C99.4202 23.0176 99.5769 23.6052 99.5769 24.2604C99.5769 25.0912 99.3418 25.7802 98.865 26.3206C98.3947 26.8609 97.6828 27.2054 96.7423 27.3472C97.2125 27.6309 97.5978 27.9416 97.8983 28.2794C98.2052 28.6171 98.6167 29.2183 99.1327 30.0761L100.439 32.2375H97.8526L96.285 29.8262C95.7298 28.9616 95.351 28.4212 95.142 28.1983C94.9395 27.9754 94.7175 27.8201 94.4889 27.739C94.2603 27.658 93.8946 27.6174 93.3982 27.6174H92.9605V32.2443H90.7986L90.8117 32.2375ZM92.9801 25.841H94.5803C95.6188 25.841 96.2654 25.7937 96.5267 25.7059C96.7879 25.6181 96.9839 25.456 97.1341 25.2398C97.2778 25.0169 97.3562 24.74 97.3562 24.409C97.3562 24.0375 97.2582 23.7336 97.0688 23.5039C96.8794 23.2743 96.6051 23.1324 96.2524 23.0716C96.0761 23.0446 95.5535 23.0311 94.6718 23.0311H92.9801V25.841Z" fill="black"/>
<path d="M111.288 32.2375H108.936L108.002 29.7181H103.718L102.836 32.2375H100.537L104.711 21.1533H106.997L111.288 32.2375ZM107.304 27.8538L105.827 23.7403L104.377 27.8538H107.304Z" fill="black"/>
<path d="M112.457 32.2375V21.1533H114.56L118.949 28.5563V21.1533H120.961V32.2375H118.792L114.469 25.0102V32.2375H112.457Z" fill="black"/>
<path d="M127.159 29.2791V27.1514H131.196V29.2791H127.159Z" fill="black"/>
<path d="M136.564 21.1533H140.849C141.698 21.1533 142.332 21.1871 142.75 21.2614C143.168 21.3357 143.54 21.4843 143.867 21.7207C144.193 21.9504 144.467 22.2611 144.69 22.6461C144.912 23.0311 145.016 23.4634 145.016 23.943C145.016 24.4631 144.879 24.9359 144.611 25.3749C144.343 25.8072 143.971 26.1314 143.514 26.3476C144.167 26.5435 144.67 26.8812 145.023 27.354C145.375 27.8268 145.552 28.3875 145.552 29.0224C145.552 29.529 145.441 30.0153 145.212 30.4949C144.983 30.9677 144.676 31.3527 144.285 31.6364C143.893 31.9201 143.409 32.0957 142.835 32.1632C142.475 32.2038 141.607 32.2308 140.222 32.2375H136.571V21.1533H136.564ZM138.726 22.9973V25.5573H140.144C140.986 25.5573 141.509 25.5438 141.718 25.5168C142.09 25.4695 142.377 25.3411 142.593 25.1182C142.809 24.8953 142.913 24.6117 142.913 24.2537C142.913 23.8957 142.822 23.6322 142.639 23.4161C142.456 23.1999 142.181 23.0716 141.822 23.0243C141.607 22.9973 140.993 22.9838 139.974 22.9838H138.733L138.726 22.9973ZM138.726 27.408V30.3733H140.732C141.509 30.3733 142.005 30.353 142.214 30.3057C142.534 30.245 142.795 30.0964 142.998 29.8667C143.2 29.637 143.298 29.3196 143.298 28.9278C143.298 28.5968 143.22 28.3131 143.063 28.0835C142.906 27.8538 142.684 27.685 142.384 27.5769C142.09 27.4688 141.45 27.4215 140.464 27.4215H138.713L138.726 27.408Z" fill="black"/>
<path d="M157.041 32.2375H154.689L153.755 29.7181H149.471L148.589 32.2375H146.29L150.463 21.1533H152.749L157.041 32.2375ZM153.056 27.8538L151.58 23.7403L150.13 27.8538H153.056Z" fill="black"/>
</svg>
